<?xml version="1.0" encoding="UTF-8"?>
<svg xmlns="http://www.w3.org/2000/svg" xmlns:xlink="http://www.w3.org/1999/xlink" width="768px" height="1152px" viewBox="0 0 768 1152" version="1.1">
<g id="surface1">
<path style=" stroke:none;fill-rule:nonzero;fill:rgb(99.607843%,99.607843%,99.607843%);fill-opacity:1;" d="M 0 0 C 253.441406 0 506.878906 0 768 0 C 768 380.160156 768 760.320312 768 1152 C 514.558594 1152 261.121094 1152 0 1152 C 0 771.839844 0 391.679688 0 0 Z M 0 0 "/>
<path style=" stroke:none;fill-rule:nonzero;fill:rgb(69.411767%,72.156864%,74.117649%);fill-opacity:1;" d="M 382.761719 339.566406 C 395 349.929688 404.078125 363.183594 405.75 379.5 C 407.09375 397.917969 403.335938 413.882812 391.75 428.492188 C 382.339844 439.277344 369.125 446.890625 354.75 448.5 C 335.175781 449.546875 319.527344 445.859375 304.5 432.75 C 298.921875 427.523438 295.203125 421.488281 291.75 414.75 C 291.386719 414.058594 291.023438 413.371094 290.648438 412.65625 C 287.183594 405.332031 286.25 397.191406 285 389.25 C 284.757812 389.585938 284.519531 389.917969 284.273438 390.261719 C 279.550781 396.828125 274.804688 403.371094 270 409.875 C 265.359375 416.15625 260.777344 422.480469 256.214844 428.816406 C 254.984375 430.523438 253.75 432.222656 252.511719 433.925781 C 248.472656 439.488281 244.453125 445.066406 240.515625 450.703125 C 240.160156 451.203125 239.804688 451.707031 239.4375 452.222656 C 237.46875 454.972656 237.46875 454.972656 237 458.25 C 248.636719 458.292969 260.257812 458.210938 271.890625 457.941406 C 294.410156 457.433594 316.925781 457.3125 339.449219 457.28125 C 345.867188 457.273438 352.28125 457.257812 358.695312 457.222656 C 363.308594 457.199219 367.921875 457.191406 372.535156 457.1875 C 375.25 457.183594 377.96875 457.179688 380.6875 457.160156 C 383.6875 457.140625 386.6875 457.140625 389.6875 457.148438 C 390.554688 457.136719 391.421875 457.128906 392.316406 457.117188 C 403.207031 457.1875 411.597656 460.328125 419.71875 467.484375 C 420.601562 468.480469 420.601562 468.480469 421.5 469.5 C 421.910156 469.953125 422.316406 470.40625 422.738281 470.871094 C 431.695312 481.347656 437.925781 494.320312 444.382812 506.410156 C 445.476562 508.457031 446.585938 510.496094 447.695312 512.535156 C 477.6875 568.152344 477.6875 568.152344 472.738281 591.964844 C 468.882812 604.351562 459.730469 613.449219 451.101562 622.726562 C 449.613281 624.351562 448.207031 626 446.8125 627.703125 C 439.796875 635.773438 430.691406 642.253906 422.25 648.75 C 421.664062 649.222656 421.078125 649.695312 420.472656 650.183594 C 415.550781 654.085938 411 655.972656 404.640625 655.765625 C 399.929688 655.101562 395.648438 652.800781 392.25 649.5 C 389.089844 644.984375 388.816406 640.640625 389.25 635.25 C 390.894531 627.082031 398.050781 620.996094 403.75 615.429688 C 405.105469 614.09375 406.460938 612.753906 407.8125 611.414062 C 409.921875 609.339844 412.03125 607.265625 414.140625 605.195312 C 426.613281 594.683594 426.613281 594.683594 434.539062 581.113281 C 434.414062 579.511719 434.050781 578.257812 433.5 576.75 C 433.367188 576.242188 433.238281 575.734375 433.101562 575.210938 C 428.328125 557.070312 419.160156 536.867188 408.75 521.25 C 408.746094 522.210938 408.742188 523.167969 408.738281 524.15625 C 408.695312 533.195312 408.640625 542.234375 408.574219 551.273438 C 408.539062 555.917969 408.511719 560.566406 408.488281 565.210938 C 408.46875 569.695312 408.441406 574.179688 408.402344 578.664062 C 408.390625 580.375 408.382812 582.085938 408.375 583.796875 C 408.371094 586.191406 408.347656 588.585938 408.324219 590.984375 C 408.324219 591.691406 408.328125 592.402344 408.328125 593.132812 C 408.261719 597.632812 407.609375 600.242188 404.476562 603.625 C 404.019531 604.042969 403.5625 604.460938 403.089844 604.890625 C 402.578125 605.363281 402.070312 605.835938 401.542969 606.320312 C 400.75 607.042969 400.75 607.042969 399.9375 607.78125 C 385.609375 620.796875 385.609375 620.796875 380.0625 638.8125 C 380.199219 646.054688 383.316406 652.367188 388.25 657.566406 C 393.59375 662.433594 400.445312 665.652344 407.738281 665.429688 C 420.738281 664.089844 433.011719 651.769531 441.828125 642.898438 C 443.25 642 443.25 642 445.070312 642.039062 C 449.082031 643.515625 451.289062 646.195312 453.515625 649.734375 C 453.953125 650.410156 454.386719 651.089844 454.835938 651.789062 C 457.214844 656.308594 457.726562 660.445312 457.640625 665.4375 C 457.640625 665.953125 457.640625 666.46875 457.640625 667 C 457.617188 669.851562 457.453125 672.65625 457.160156 675.492188 C 456.59375 681.582031 456.339844 687.6875 456.046875 693.796875 C 455.984375 695.117188 455.917969 696.433594 455.855469 697.753906 C 455.71875 700.511719 455.585938 703.273438 455.453125 706.035156 C 455.285156 709.511719 455.117188 712.984375 454.945312 716.460938 C 454.308594 729.5 453.695312 742.539062 453.234375 755.585938 C 453.027344 761.496094 452.75 767.394531 452.34375 773.296875 C 452.269531 774.566406 452.269531 774.566406 452.195312 775.863281 C 451.515625 785.734375 449.152344 792.445312 441.9375 799.3125 C 436.007812 804.191406 430.273438 805.265625 422.664062 805.039062 C 419.015625 804.644531 416.335938 803.707031 413.25 801.75 C 412.726562 801.421875 412.207031 801.097656 411.667969 800.761719 C 405.628906 796.605469 401.585938 790.855469 399.75 783.75 C 399.164062 774.929688 400 765.882812 400.378906 757.0625 C 400.445312 755.507812 400.511719 753.953125 400.578125 752.398438 C 400.714844 749.15625 400.851562 745.917969 400.992188 742.675781 C 401.167969 738.554688 401.34375 734.433594 401.515625 730.3125 C 401.648438 727.105469 401.785156 723.902344 401.921875 720.699219 C 401.988281 719.179688 402.050781 717.660156 402.113281 716.144531 C 402.410156 709.164062 402.710938 702.183594 403.125 695.210938 C 403.179688 694.289062 403.230469 693.367188 403.289062 692.414062 C 403.472656 690.304688 403.78125 688.3125 404.25 686.25 C 394.859375 684.863281 385.457031 683.59375 376.042969 682.371094 C 363.847656 680.785156 351.6875 679.160156 339.609375 676.828125 C 329.960938 674.988281 320.300781 674.035156 310.5 673.5 C 310.617188 673.929688 310.734375 674.359375 310.855469 674.800781 C 311.238281 676.453125 311.425781 677.996094 311.550781 679.683594 C 311.625 680.632812 311.625 680.632812 311.695312 681.597656 C 311.769531 682.632812 311.769531 682.632812 311.847656 683.6875 C 311.902344 684.425781 311.957031 685.160156 312.015625 685.917969 C 312.136719 687.523438 312.257812 689.132812 312.375 690.738281 C 312.699219 695.121094 313.03125 699.503906 313.363281 703.886719 C 313.433594 704.816406 313.503906 705.746094 313.574219 706.703125 C 314.113281 713.789062 314.675781 720.875 315.253906 727.957031 C 315.296875 728.476562 315.339844 728.992188 315.382812 729.527344 C 315.757812 734.128906 316.132812 738.730469 316.511719 743.332031 C 317.394531 754.050781 318.230469 764.757812 318.75 775.5 C 318.804688 776.421875 318.855469 777.339844 318.910156 778.289062 C 319.277344 785.417969 317.324219 791.527344 312.9375 797.203125 C 307.710938 802.710938 300.789062 804.785156 293.390625 805.03125 C 285.429688 804.871094 280.382812 802.359375 274.648438 796.871094 C 269 790.464844 267.738281 782.480469 267.105469 774.230469 C 267.054688 773.605469 267 772.980469 266.949219 772.335938 C 266.832031 770.972656 266.722656 769.605469 266.613281 768.242188 C 266.304688 764.421875 265.980469 760.601562 265.65625 756.785156 C 265.585938 755.957031 265.515625 755.132812 265.445312 754.277344 C 264.605469 744.441406 263.679688 734.613281 262.75 724.78125 C 262.453125 721.648438 262.160156 718.511719 261.867188 715.375 C 261.082031 707.023438 260.296875 698.667969 259.460938 690.320312 C 255.878906 654.300781 255.878906 654.300781 263.265625 644.488281 C 269.75 636.839844 277.265625 632.140625 286.5 628.5 C 287.242188 628.5 287.984375 628.5 288.75 628.5 C 288.75 585.929688 288.75 543.359375 288.75 499.5 C 258.976562 499.617188 258.976562 499.617188 229.199219 499.769531 C 223.425781 499.785156 223.425781 499.785156 220.71875 499.785156 C 218.835938 499.789062 216.957031 499.800781 215.074219 499.816406 C 212.21875 499.839844 209.359375 499.839844 206.5 499.839844 C 205.253906 499.855469 205.253906 499.855469 203.984375 499.875 C 196.195312 499.832031 189.414062 497.496094 183.75 492 C 182.003906 489.867188 180.585938 487.660156 179.25 485.25 C 178.867188 484.585938 178.867188 484.585938 178.472656 483.90625 C 175.910156 478.507812 176.152344 471.027344 177.441406 465.289062 C 179.28125 460.664062 182.617188 456.75 185.671875 452.871094 C 186.875 451.339844 188.066406 449.804688 189.261719 448.265625 C 191.066406 445.9375 192.878906 443.609375 194.691406 441.285156 C 196.804688 438.574219 198.90625 435.851562 201 433.125 C 204.4375 428.648438 207.902344 424.191406 211.371094 419.738281 C 213.925781 416.457031 216.46875 413.171875 219 409.875 C 222.4375 405.398438 225.902344 400.941406 229.371094 396.488281 C 231.925781 393.207031 234.46875 389.921875 237 386.625 C 241.296875 381.03125 245.621094 375.460938 249.96875 369.90625 C 250.859375 368.753906 251.738281 367.597656 252.613281 366.429688 C 254.859375 363.449219 256.832031 360.847656 260.0625 358.875 C 260.617188 358.527344 261.167969 358.179688 261.738281 357.820312 C 265.953125 355.535156 270.589844 355.769531 275.25 356.25 C 279.671875 357.839844 283.214844 361.347656 285.75 365.25 C 286.558594 366.980469 287.28125 368.730469 288 370.5 C 288.371094 369.722656 288.746094 368.941406 289.128906 368.140625 C 292.066406 362.074219 295.035156 356.300781 299.25 351 C 299.730469 350.386719 300.214844 349.773438 300.710938 349.140625 C 320.753906 325.253906 357.875 320.234375 382.761719 339.566406 Z M 382.761719 339.566406 "/>
<path style=" stroke:none;fill-rule:nonzero;fill:rgb(99.215686%,71.764708%,18.82353%);fill-opacity:1;" d="M 591 180.75 C 591.542969 181.167969 592.085938 181.589844 592.644531 182.023438 C 605.613281 192.449219 615.507812 210.878906 618 227.25 C 618.082031 227.738281 618.164062 228.226562 618.25 228.734375 C 621.34375 250.769531 614.515625 272.445312 601.351562 290.09375 C 600.21875 291.582031 599.078125 293.070312 597.9375 294.554688 C 587.730469 307.851562 579.148438 320.730469 574.71875 337.007812 C 574.058594 339.421875 573.371094 341.816406 572.617188 344.203125 C 572.449219 344.742188 572.28125 345.285156 572.105469 345.839844 C 571.167969 348.027344 569.75 349.050781 567.75 350.25 C 565.136719 351.121094 562.789062 351.117188 560.070312 351.121094 C 559.246094 351.125 559.246094 351.125 558.402344 351.132812 C 556.582031 351.144531 554.765625 351.148438 552.945312 351.152344 C 551.675781 351.15625 550.410156 351.160156 549.144531 351.164062 C 546.492188 351.171875 543.835938 351.175781 541.183594 351.179688 C 537.785156 351.183594 534.386719 351.203125 530.988281 351.222656 C 528.371094 351.238281 525.757812 351.242188 523.140625 351.242188 C 521.890625 351.246094 520.636719 351.25 519.382812 351.261719 C 517.628906 351.273438 515.875 351.273438 514.121094 351.265625 C 513.605469 351.273438 513.089844 351.28125 512.558594 351.289062 C 508.65625 351.253906 506.289062 350.230469 503.5 347.550781 C 501.957031 344.769531 501.445312 341.804688 500.765625 338.71875 C 497.121094 323.445312 489.414062 311.144531 479.773438 298.910156 C 462.949219 277.140625 454 255.125 457.09375 227.28125 C 459.871094 207.703125 471.597656 189.445312 487.207031 177.582031 C 518.761719 154.285156 561.058594 155.808594 591 180.75 Z M 591 180.75 "/>
<path style=" stroke:none;fill-rule:nonzero;fill:rgb(78.431374%,80.784315%,81.568629%);fill-opacity:1;" d="M 456.75 507 C 474.75 506.894531 492.75 506.816406 510.75 506.765625 C 519.109375 506.742188 527.464844 506.710938 535.824219 506.660156 C 543.109375 506.617188 550.394531 506.585938 557.675781 506.578125 C 561.535156 506.570312 565.390625 506.558594 569.25 506.523438 C 572.878906 506.492188 576.511719 506.484375 580.144531 506.492188 C 581.476562 506.488281 582.804688 506.480469 584.136719 506.464844 C 595.460938 506.324219 595.460938 506.324219 598.910156 509.1875 C 601.632812 512.609375 601.628906 514.847656 601.652344 519.085938 C 601.65625 519.691406 601.660156 520.292969 601.664062 520.917969 C 601.671875 522.199219 601.675781 523.480469 601.679688 524.761719 C 601.6875 526.71875 601.710938 528.675781 601.734375 530.628906 C 601.738281 531.875 601.742188 533.121094 601.746094 534.367188 C 601.753906 534.949219 601.765625 535.53125 601.773438 536.132812 C 601.761719 539.558594 601.515625 541.867188 599.25 544.5 C 595.285156 547.335938 591.277344 547.042969 586.601562 546.96875 C 585.824219 546.964844 585.046875 546.964844 584.246094 546.960938 C 581.78125 546.949219 579.3125 546.917969 576.84375 546.890625 C 575.167969 546.878906 573.488281 546.867188 571.8125 546.859375 C 567.707031 546.835938 563.605469 546.792969 559.5 546.75 C 559.5 556.402344 559.5 566.054688 559.5 576 C 561.9375 575.964844 564.375 575.929688 566.890625 575.894531 C 569.257812 575.871094 571.625 575.851562 573.992188 575.835938 C 575.636719 575.820312 577.277344 575.800781 578.921875 575.773438 C 581.285156 575.738281 583.648438 575.71875 586.015625 575.707031 C 586.746094 575.691406 587.476562 575.675781 588.230469 575.660156 C 592.664062 575.660156 595.105469 576.082031 598.5 579 C 601.441406 582.347656 601.625 585.425781 601.652344 589.726562 C 601.65625 590.261719 601.660156 590.796875 601.664062 591.347656 C 601.671875 592.480469 601.675781 593.613281 601.679688 594.746094 C 601.6875 596.46875 601.710938 598.191406 601.734375 599.917969 C 601.738281 601.019531 601.742188 602.121094 601.746094 603.226562 C 601.761719 603.992188 601.761719 603.992188 601.773438 604.773438 C 601.753906 609.460938 600.429688 612.160156 597.367188 615.632812 C 594.136719 618.113281 590.507812 617.71875 586.601562 617.617188 C 585.910156 617.613281 585.222656 617.609375 584.511719 617.605469 C 581.957031 617.585938 579.398438 617.53125 576.84375 617.484375 C 571.121094 617.40625 565.398438 617.328125 559.5 617.25 C 559.5 629.128906 559.5 641.011719 559.5 653.25 C 570.652344 652.886719 570.652344 652.886719 581.800781 652.484375 C 583.207031 652.445312 584.609375 652.40625 586.015625 652.371094 C 587.097656 652.324219 587.097656 652.324219 588.203125 652.277344 C 592.554688 652.179688 595.109375 652.480469 598.5 655.5 C 600.808594 657.71875 601.441406 658.820312 601.875 662.027344 C 601.890625 663.09375 601.886719 664.160156 601.871094 665.226562 C 601.875 665.796875 601.875 666.363281 601.875 666.949219 C 601.875 668.148438 601.867188 669.34375 601.851562 670.542969 C 601.828125 672.371094 601.835938 674.195312 601.84375 676.023438 C 601.839844 677.191406 601.832031 678.355469 601.824219 679.523438 C 601.828125 680.066406 601.828125 680.609375 601.832031 681.167969 C 601.769531 684.496094 601.269531 686.59375 599.25 689.25 C 596.191406 692.003906 593.992188 693.097656 589.894531 693.085938 C 588.882812 693.085938 588.882812 693.085938 587.847656 693.085938 C 587.121094 693.082031 586.394531 693.078125 585.648438 693.074219 C 584.527344 693.070312 584.527344 693.070312 583.386719 693.070312 C 581.003906 693.066406 578.617188 693.054688 576.234375 693.046875 C 574.617188 693.042969 573.003906 693.039062 571.386719 693.035156 C 567.425781 693.027344 563.460938 693.015625 559.5 693 C 559.503906 693.488281 559.503906 693.972656 559.507812 694.476562 C 559.554688 706.324219 559.59375 718.175781 559.617188 730.023438 C 559.628906 735.753906 559.644531 741.484375 559.667969 747.214844 C 559.691406 752.210938 559.707031 757.207031 559.710938 762.203125 C 559.714844 764.84375 559.722656 767.488281 559.738281 770.132812 C 559.757812 773.089844 559.757812 776.042969 559.753906 778.996094 C 559.761719 779.871094 559.773438 780.746094 559.78125 781.644531 C 559.761719 786.644531 559.5 790.3125 555.960938 794.148438 C 555.519531 794.507812 555.078125 794.863281 554.625 795.234375 C 554.183594 795.601562 553.742188 795.972656 553.289062 796.351562 C 549.503906 798.992188 544.390625 798.375 540 798 C 535.929688 796.753906 533.421875 793.847656 531 790.5 C 530.246094 788.234375 530.15625 786.734375 530.160156 784.363281 C 530.160156 783.15625 530.160156 783.15625 530.15625 781.925781 C 530.160156 780.601562 530.160156 780.601562 530.164062 779.25 C 530.164062 778.320312 530.164062 777.390625 530.164062 776.433594 C 530.164062 773.886719 530.167969 771.335938 530.175781 768.789062 C 530.179688 766.125 530.179688 763.460938 530.179688 760.796875 C 530.183594 755.753906 530.1875 750.710938 530.195312 745.664062 C 530.207031 738.847656 530.210938 732.035156 530.214844 725.21875 C 530.222656 714.476562 530.238281 703.738281 530.25 693 C 509.210938 693 488.175781 693 466.5 693 C 466.5 679.882812 466.5 666.765625 466.5 653.25 C 487.539062 653.25 508.574219 653.25 530.25 653.25 C 530.25 641.371094 530.25 629.488281 530.25 617.25 C 510.945312 617.25 491.640625 617.25 471.75 617.25 C 473.578125 614.054688 475.335938 611.085938 477.375 608.0625 C 484.027344 597.699219 483.898438 588.601562 484.5 576 C 499.597656 576 514.695312 576 530.25 576 C 530.25 566.347656 530.25 556.695312 530.25 546.75 C 512.183594 546.75 494.113281 546.75 475.5 546.75 C 472.035156 539.324219 468.570312 531.898438 465 524.25 C 461.582031 517.371094 461.582031 517.371094 458.105469 510.523438 C 457.5 509.25 457.5 509.25 456.75 507 Z M 456.75 507 "/>
<path style=" stroke:none;fill-rule:nonzero;fill:rgb(78.431374%,80.784315%,81.568629%);fill-opacity:1;" d="M 171.1875 506.820312 C 172.632812 506.816406 172.632812 506.816406 174.109375 506.8125 C 175.171875 506.820312 176.238281 506.824219 177.304688 506.828125 C 178.429688 506.832031 179.550781 506.828125 180.675781 506.828125 C 183.726562 506.828125 186.773438 506.835938 189.824219 506.847656 C 193.011719 506.855469 196.199219 506.859375 199.386719 506.859375 C 205.421875 506.863281 211.453125 506.875 217.488281 506.890625 C 224.359375 506.910156 231.230469 506.917969 238.101562 506.925781 C 252.234375 506.941406 266.367188 506.964844 280.5 507 C 280.519531 510.25 280.53125 513.5 280.542969 516.75 C 280.542969 517.847656 280.550781 518.945312 280.554688 520.042969 C 280.609375 528.988281 280.199219 537.796875 279.75 546.75 C 264.15625 546.75 248.566406 546.75 232.5 546.75 C 232.5 556.648438 232.5 566.550781 232.5 576.75 C 248.09375 576.75 263.683594 576.75 279.75 576.75 C 279.75 590.113281 279.75 603.480469 279.75 617.25 C 264.15625 617.25 248.566406 617.25 232.5 617.25 C 232.5 628.882812 232.5 640.515625 232.5 652.5 C 237.699219 652.5 242.894531 652.5 248.25 652.5 C 248.234375 653.601562 248.214844 654.703125 248.195312 655.835938 C 248.066406 668.308594 248.753906 680.574219 249.75 693 C 244.058594 693 238.363281 693 232.5 693 C 232.507812 694.191406 232.511719 695.386719 232.519531 696.613281 C 232.582031 707.847656 232.625 719.082031 232.65625 730.316406 C 232.671875 736.09375 232.691406 741.867188 232.726562 747.644531 C 232.757812 752.679688 232.777344 757.714844 232.78125 762.75 C 232.785156 765.414062 232.796875 768.078125 232.816406 770.746094 C 232.839844 773.722656 232.84375 776.699219 232.839844 779.675781 C 232.851562 780.558594 232.863281 781.441406 232.875 782.347656 C 232.84375 787.957031 232.238281 790.679688 228.300781 794.734375 C 223.449219 798.601562 219.023438 798.402344 213 798 C 209.070312 796.738281 207.140625 794.570312 204.75 791.25 C 203.464844 788.554688 203.0625 786.4375 203.070312 783.460938 C 203.066406 782.660156 203.066406 781.859375 203.0625 781.035156 C 203.070312 780.167969 203.074219 779.296875 203.078125 778.398438 C 203.078125 777.476562 203.078125 776.554688 203.078125 775.605469 C 203.078125 773.082031 203.085938 770.558594 203.097656 768.039062 C 203.105469 765.398438 203.109375 762.761719 203.109375 760.121094 C 203.113281 755.128906 203.125 750.136719 203.140625 745.140625 C 203.160156 739.457031 203.167969 733.769531 203.175781 728.082031 C 203.191406 716.386719 203.214844 704.695312 203.25 693 C 202.820312 693.007812 202.390625 693.011719 201.945312 693.019531 C 197.457031 693.085938 192.96875 693.132812 188.476562 693.164062 C 186.804688 693.179688 185.128906 693.199219 183.457031 693.226562 C 181.046875 693.261719 178.636719 693.28125 176.222656 693.292969 C 175.109375 693.316406 175.109375 693.316406 173.96875 693.339844 C 169.304688 693.339844 166.5625 692.738281 162.75 690 C 158.753906 685.605469 159.585938 680.148438 159.570312 674.574219 C 159.5625 672.90625 159.539062 671.234375 159.515625 669.566406 C 159.511719 668.5 159.507812 667.429688 159.503906 666.359375 C 159.496094 665.394531 159.488281 664.425781 159.484375 663.429688 C 159.886719 659.382812 161.210938 657.15625 163.859375 654.117188 C 167.167969 651.582031 170.992188 652.035156 174.976562 652.132812 C 175.789062 652.140625 176.597656 652.144531 177.429688 652.148438 C 180.007812 652.171875 182.582031 652.21875 185.15625 652.265625 C 186.90625 652.285156 188.65625 652.300781 190.40625 652.316406 C 194.6875 652.355469 198.96875 652.429688 203.25 652.5 C 203.25 640.867188 203.25 629.234375 203.25 617.25 C 200.703125 617.285156 198.15625 617.320312 195.53125 617.355469 C 193.0625 617.378906 190.589844 617.398438 188.117188 617.414062 C 186.402344 617.429688 184.6875 617.449219 182.96875 617.476562 C 180.5 617.511719 178.035156 617.53125 175.5625 617.542969 C 174.417969 617.566406 174.417969 617.566406 173.25 617.589844 C 168.898438 617.589844 166.066406 617.375 162.75 614.25 C 160.417969 610.800781 160.160156 607.617188 160.175781 603.5625 C 160.171875 602.980469 160.167969 602.398438 160.164062 601.796875 C 160.15625 600.574219 160.160156 599.347656 160.164062 598.121094 C 160.171875 596.253906 160.148438 594.390625 160.125 592.523438 C 160.125 591.328125 160.125 590.132812 160.128906 588.9375 C 160.121094 588.382812 160.109375 587.832031 160.101562 587.261719 C 160.152344 583.40625 161.007812 581.179688 163.5 578.25 C 165.789062 576.8125 167.53125 576.566406 170.214844 576.578125 C 171.316406 576.578125 171.316406 576.578125 172.441406 576.582031 C 173.625 576.589844 173.625 576.589844 174.832031 576.605469 C 176.050781 576.605469 176.050781 576.605469 177.289062 576.609375 C 179.882812 576.617188 182.472656 576.636719 185.0625 576.65625 C 186.820312 576.664062 188.574219 576.671875 190.332031 576.675781 C 194.640625 576.691406 198.945312 576.722656 203.25 576.75 C 203.25 566.851562 203.25 556.949219 203.25 546.75 C 199.347656 546.800781 199.347656 546.800781 195.367188 546.855469 C 192.84375 546.878906 190.320312 546.898438 187.796875 546.914062 C 186.042969 546.929688 184.292969 546.949219 182.539062 546.976562 C 180.019531 547.011719 177.5 547.03125 174.976562 547.042969 C 173.808594 547.066406 173.808594 547.066406 172.613281 547.089844 C 168.214844 547.089844 165.390625 546.867188 162 543.75 C 159.910156 541.074219 160.257812 537.800781 160.246094 534.546875 C 160.242188 533.945312 160.238281 533.34375 160.234375 532.722656 C 160.226562 531.453125 160.222656 530.183594 160.222656 528.914062 C 160.21875 526.980469 160.191406 525.046875 160.164062 523.113281 C 160.160156 521.878906 160.15625 520.640625 160.152344 519.40625 C 160.144531 518.828125 160.132812 518.253906 160.121094 517.664062 C 160.15625 513.792969 160.894531 511.539062 163.5 508.5 C 166.042969 506.832031 168.1875 506.816406 171.1875 506.820312 Z M 171.1875 506.820312 "/>
<path style=" stroke:none;fill-rule:nonzero;fill:rgb(69.01961%,71.764708%,74.117649%);fill-opacity:1;" d="M 516.570312 362.878906 C 517.085938 362.875 517.597656 362.871094 518.125 362.867188 C 519.820312 362.855469 521.515625 362.851562 523.210938 362.847656 C 524.390625 362.84375 525.570312 362.839844 526.75 362.835938 C 529.222656 362.828125 531.699219 362.824219 534.171875 362.820312 C 537.339844 362.816406 540.503906 362.796875 543.667969 362.777344 C 546.105469 362.761719 548.542969 362.757812 550.980469 362.757812 C 552.148438 362.753906 553.316406 362.75 554.480469 362.738281 C 556.117188 362.726562 557.75 362.726562 559.386719 362.734375 C 560.316406 362.730469 561.246094 362.726562 562.203125 362.722656 C 565.042969 363.03125 566.832031 363.746094 569.25 365.25 C 571.136719 368.082031 571.027344 369.382812 570.75 372.75 C 570.007812 376.097656 569.070312 378.21875 566.53125 380.578125 C 563.417969 382.019531 560.648438 382.347656 557.25 382.5 C 557.292969 382.953125 557.335938 383.410156 557.382812 383.875 C 557.671875 389.25 556.578125 393.070312 553.5 397.5 C 549.894531 401.511719 545.832031 404.558594 540.351562 405.234375 C 533.722656 405.53125 528.40625 403.734375 523.21875 399.609375 C 519.738281 396.296875 517.730469 392.730469 517.324219 387.902344 C 517.3125 386.089844 517.363281 384.308594 517.5 382.5 C 516.835938 382.472656 516.835938 382.472656 516.15625 382.441406 C 512.238281 382.160156 509.773438 381.773438 507 378.75 C 504.945312 375.421875 504.878906 371.289062 505.5 367.5 C 508.710938 363.246094 511.472656 362.90625 516.570312 362.878906 Z M 516.570312 362.878906 "/>
<path style=" stroke:none;fill-rule:nonzero;fill:rgb(99.607843%,99.215686%,97.647059%);fill-opacity:1;" d="M 573.75 230.25 C 575.339844 232.632812 575.472656 233.457031 574.976562 236.199219 C 573.976562 239.449219 572.082031 242.265625 570.328125 245.15625 C 557.695312 266.699219 551.3125 288.429688 550.929688 313.449219 C 550.90625 314.292969 550.882812 315.132812 550.859375 316 C 550.84375 316.765625 550.828125 317.527344 550.8125 318.3125 C 550.5 320.25 550.5 320.25 549.523438 321.652344 C 548.25 322.5 548.25 322.5 545.53125 322.3125 C 543 321.75 543 321.75 542.25 321 C 539.867188 292.144531 548.441406 264.472656 563.25 240 C 562.742188 240.253906 562.234375 240.507812 561.710938 240.765625 C 561.011719 241.101562 560.3125 241.4375 559.59375 241.78125 C 558.914062 242.113281 558.238281 242.441406 557.539062 242.78125 C 551.152344 245.214844 544.761719 245.539062 537.984375 245.53125 C 537.128906 245.53125 536.269531 245.53125 535.386719 245.527344 C 526.605469 245.40625 519.511719 243.515625 511.5 240 C 511.917969 240.65625 512.335938 241.3125 512.765625 241.984375 C 526.25 263.546875 532.625 287.773438 532.640625 313.171875 C 532.648438 313.910156 532.660156 314.644531 532.667969 315.40625 C 532.667969 316.109375 532.671875 316.808594 532.671875 317.535156 C 532.675781 318.164062 532.679688 318.796875 532.683594 319.445312 C 532.5 321 532.5 321 531 322.5 C 528.375 322.734375 528.375 322.734375 525.75 322.5 C 524.066406 319.976562 524.054688 319.082031 524.019531 316.128906 C 523.992188 314.882812 523.992188 314.882812 523.964844 313.613281 C 523.953125 312.726562 523.9375 311.835938 523.921875 310.921875 C 523.195312 285.25 516.390625 261.011719 501.546875 239.816406 C 499.90625 237.203125 499.902344 235.527344 500.25 232.5 C 502 230.75 502.386719 230.761719 504.769531 230.726562 C 508.84375 230.816406 512.023438 232.195312 515.671875 233.90625 C 527.398438 239.261719 541 241.078125 553.414062 236.515625 C 555.210938 235.734375 557.003906 234.9375 558.789062 234.132812 C 559.320312 233.894531 559.851562 233.65625 560.398438 233.410156 C 561.421875 232.945312 562.441406 232.460938 563.453125 231.964844 C 567.042969 230.277344 569.777344 229.824219 573.75 230.25 Z M 573.75 230.25 "/>
<path style=" stroke:none;fill-rule:nonzero;fill:rgb(68.627453%,71.764708%,73.725492%);fill-opacity:1;" d="M 439.640625 281.765625 C 443.296875 283.425781 445.453125 285.476562 447.75 288.75 C 449.0625 292.691406 449.328125 297.09375 447.820312 301.019531 C 445.449219 305.058594 442.488281 307.503906 438 309 C 433.703125 309.425781 430.441406 309.183594 426.75 306.75 C 422.730469 303.382812 421.035156 299.988281 420.375 294.796875 C 420.558594 290.261719 423.203125 286.953125 426.421875 283.96875 C 430.730469 281.097656 434.570312 280.171875 439.640625 281.765625 Z M 439.640625 281.765625 "/>
<path style=" stroke:none;fill-rule:nonzero;fill:rgb(68.627453%,71.372551%,73.725492%);fill-opacity:1;" d="M 411.582031 316.535156 C 413.722656 318.230469 415.496094 319.855469 416.25 322.5 C 416.597656 326.113281 416.640625 327.757812 414.9375 330.984375 C 412.183594 334.273438 410.304688 335.691406 405.871094 336.097656 C 402.148438 335.875 399.257812 334.070312 396.75 331.40625 C 395.609375 328.125 395.339844 325.171875 396 321.75 C 397.558594 318.917969 399.570312 317.089844 402.28125 315.375 C 405.597656 314.742188 408.652344 314.808594 411.582031 316.535156 Z M 411.582031 316.535156 "/>
</g>
</svg>
