<?xml version="1.0" encoding="UTF-8"?>
<svg xmlns="http://www.w3.org/2000/svg" xmlns:xlink="http://www.w3.org/1999/xlink" width="368px" height="552px" viewBox="0 0 368 552" version="1.1">
<g id="surface1">
<path style=" stroke:none;fill-rule:nonzero;fill:rgb(99.607843%,99.607843%,99.607843%);fill-opacity:1;" d="M 0 0 C 121.441406 0 242.878906 0 368 0 C 368 182.160156 368 364.320312 368 552 C 246.558594 552 125.121094 552 0 552 C 0 369.839844 0 187.679688 0 0 Z M 0 0 "/>
<path style=" stroke:none;fill-rule:nonzero;fill:rgb(69.411767%,72.156864%,74.117649%);fill-opacity:1;" d="M 183.40625 162.707031 C 189.269531 167.675781 193.621094 174.027344 194.421875 181.84375 C 195.066406 190.667969 193.265625 198.320312 187.714844 205.320312 C 183.203125 210.488281 176.871094 214.136719 169.984375 214.90625 C 160.605469 215.40625 153.105469 213.640625 145.90625 207.359375 C 143.234375 204.855469 141.453125 201.964844 139.796875 198.734375 C 139.621094 198.402344 139.449219 198.074219 139.269531 197.730469 C 137.609375 194.222656 137.160156 190.320312 136.5625 186.515625 C 136.445312 186.675781 136.332031 186.835938 136.214844 187 C 133.953125 190.148438 131.675781 193.28125 129.375 196.398438 C 127.152344 199.40625 124.957031 202.4375 122.769531 205.472656 C 122.179688 206.292969 121.589844 207.105469 120.996094 207.921875 C 119.058594 210.589844 117.132812 213.261719 115.246094 215.960938 C 115.078125 216.203125 114.90625 216.441406 114.730469 216.691406 C 113.785156 218.007812 113.785156 218.007812 113.5625 219.578125 C 119.136719 219.597656 124.707031 219.558594 130.28125 219.429688 C 141.070312 219.1875 151.859375 219.128906 162.652344 219.113281 C 165.726562 219.109375 168.800781 219.101562 171.875 219.085938 C 174.085938 219.074219 176.296875 219.070312 178.507812 219.070312 C 179.808594 219.066406 181.109375 219.066406 182.414062 219.054688 C 183.851562 219.046875 185.289062 219.046875 186.726562 219.050781 C 187.140625 219.042969 187.554688 219.039062 187.984375 219.035156 C 193.203125 219.070312 197.222656 220.574219 201.113281 224.003906 C 201.539062 224.480469 201.539062 224.480469 201.96875 224.96875 C 202.164062 225.1875 202.359375 225.402344 202.5625 225.625 C 206.855469 230.644531 209.839844 236.863281 212.933594 242.65625 C 213.457031 243.636719 213.988281 244.613281 214.519531 245.589844 C 228.890625 272.238281 228.890625 272.238281 226.519531 283.648438 C 224.671875 289.585938 220.289062 293.945312 216.152344 298.390625 C 215.441406 299.167969 214.765625 299.957031 214.097656 300.773438 C 210.734375 304.640625 206.371094 307.746094 202.328125 310.859375 C 202.046875 311.085938 201.765625 311.3125 201.476562 311.546875 C 199.117188 313.417969 196.9375 314.320312 193.890625 314.222656 C 191.632812 313.902344 189.582031 312.800781 187.953125 311.21875 C 186.4375 309.054688 186.308594 306.972656 186.515625 304.390625 C 187.304688 300.476562 190.734375 297.5625 193.464844 294.894531 C 194.113281 294.253906 194.761719 293.609375 195.410156 292.96875 C 196.421875 291.976562 197.429688 290.980469 198.441406 289.988281 C 204.417969 284.953125 204.417969 284.953125 208.214844 278.449219 C 208.15625 277.683594 207.984375 277.082031 207.71875 276.359375 C 207.65625 276.117188 207.59375 275.871094 207.527344 275.621094 C 205.242188 266.929688 200.847656 257.25 195.859375 249.765625 C 195.859375 250.226562 195.855469 250.683594 195.855469 251.15625 C 195.832031 255.488281 195.808594 259.820312 195.773438 264.152344 C 195.757812 266.378906 195.746094 268.605469 195.734375 270.832031 C 195.722656 272.980469 195.710938 275.128906 195.691406 277.277344 C 195.6875 278.097656 195.683594 278.917969 195.679688 279.734375 C 195.679688 280.882812 195.667969 282.03125 195.65625 283.179688 C 195.65625 283.519531 195.65625 283.859375 195.65625 284.210938 C 195.625 286.367188 195.3125 287.617188 193.8125 289.238281 C 193.59375 289.4375 193.375 289.636719 193.148438 289.84375 C 192.902344 290.070312 192.660156 290.296875 192.40625 290.527344 C 192.027344 290.875 192.027344 290.875 191.636719 291.226562 C 184.769531 297.464844 184.769531 297.464844 182.113281 306.097656 C 182.179688 309.566406 183.671875 312.59375 186.035156 315.082031 C 188.597656 317.417969 191.878906 318.957031 195.375 318.851562 C 201.605469 318.210938 207.484375 312.304688 211.710938 308.054688 C 212.390625 307.625 212.390625 307.625 213.261719 307.644531 C 215.183594 308.351562 216.242188 309.636719 217.308594 311.332031 C 217.519531 311.65625 217.726562 311.980469 217.941406 312.316406 C 219.082031 314.480469 219.328125 316.464844 219.285156 318.855469 C 219.285156 319.101562 219.285156 319.351562 219.285156 319.605469 C 219.273438 320.96875 219.195312 322.3125 219.054688 323.671875 C 218.785156 326.589844 218.664062 329.515625 218.523438 332.445312 C 218.492188 333.078125 218.460938 333.707031 218.429688 334.339844 C 218.363281 335.660156 218.300781 336.984375 218.238281 338.308594 C 218.15625 339.972656 218.078125 341.636719 217.996094 343.304688 C 217.691406 349.550781 217.394531 355.800781 217.175781 362.050781 C 217.074219 364.882812 216.941406 367.710938 216.746094 370.539062 C 216.710938 371.144531 216.710938 371.144531 216.675781 371.769531 C 216.351562 376.496094 215.21875 379.714844 211.761719 383.003906 C 208.921875 385.339844 206.171875 385.855469 202.527344 385.746094 C 200.777344 385.558594 199.496094 385.109375 198.015625 384.171875 C 197.765625 384.015625 197.515625 383.859375 197.257812 383.699219 C 194.363281 381.707031 192.425781 378.953125 191.546875 375.546875 C 191.265625 371.320312 191.667969 366.984375 191.847656 362.757812 C 191.878906 362.015625 191.910156 361.269531 191.945312 360.523438 C 192.007812 358.96875 192.074219 357.417969 192.140625 355.867188 C 192.226562 353.890625 192.308594 351.917969 192.394531 349.941406 C 192.457031 348.40625 192.523438 346.871094 192.585938 345.335938 C 192.621094 344.605469 192.648438 343.878906 192.679688 343.152344 C 192.820312 339.808594 192.964844 336.464844 193.164062 333.121094 C 193.191406 332.679688 193.214844 332.238281 193.242188 331.78125 C 193.332031 330.769531 193.476562 329.816406 193.703125 328.828125 C 189.203125 328.164062 184.699219 327.554688 180.1875 326.96875 C 174.34375 326.210938 168.515625 325.429688 162.730469 324.3125 C 158.105469 323.433594 153.476562 322.976562 148.78125 322.71875 C 148.835938 322.925781 148.894531 323.128906 148.953125 323.34375 C 149.136719 324.132812 149.226562 324.875 149.285156 325.683594 C 149.320312 326.136719 149.320312 326.136719 149.355469 326.597656 C 149.390625 327.09375 149.390625 327.09375 149.425781 327.601562 C 149.453125 327.953125 149.480469 328.304688 149.507812 328.667969 C 149.566406 329.4375 149.625 330.210938 149.679688 330.980469 C 149.835938 333.078125 149.992188 335.179688 150.152344 337.277344 C 150.1875 337.722656 150.21875 338.171875 150.253906 338.628906 C 150.511719 342.023438 150.78125 345.417969 151.058594 348.8125 C 151.078125 349.0625 151.101562 349.308594 151.121094 349.566406 C 151.300781 351.769531 151.480469 353.976562 151.660156 356.179688 C 152.085938 361.316406 152.484375 366.445312 152.734375 371.59375 C 152.761719 372.035156 152.785156 372.476562 152.8125 372.929688 C 152.988281 376.347656 152.050781 379.273438 149.949219 381.992188 C 147.445312 384.632812 144.128906 385.625 140.582031 385.742188 C 136.769531 385.667969 134.351562 384.464844 131.601562 381.835938 C 128.894531 378.765625 128.292969 374.9375 127.988281 370.984375 C 127.964844 370.6875 127.9375 370.386719 127.914062 370.078125 C 127.855469 369.425781 127.804688 368.769531 127.753906 368.117188 C 127.605469 366.285156 127.449219 364.453125 127.292969 362.625 C 127.261719 362.230469 127.226562 361.835938 127.191406 361.425781 C 126.789062 356.710938 126.347656 352.003906 125.902344 347.289062 C 125.757812 345.789062 125.617188 344.285156 125.476562 342.785156 C 125.101562 338.78125 124.726562 334.777344 124.324219 330.777344 C 122.609375 313.519531 122.609375 313.519531 126.148438 308.816406 C 129.253906 305.152344 132.855469 302.902344 137.28125 301.15625 C 137.636719 301.15625 137.992188 301.15625 138.359375 301.15625 C 138.359375 280.757812 138.359375 260.359375 138.359375 239.34375 C 124.09375 239.398438 124.09375 239.398438 109.824219 239.472656 C 107.058594 239.480469 107.058594 239.480469 105.761719 239.480469 C 104.859375 239.480469 103.957031 239.488281 103.054688 239.496094 C 101.6875 239.507812 100.316406 239.507812 98.949219 239.507812 C 98.351562 239.515625 98.351562 239.515625 97.742188 239.523438 C 94.011719 239.503906 90.761719 238.382812 88.046875 235.75 C 87.210938 234.726562 86.53125 233.671875 85.890625 232.515625 C 85.707031 232.199219 85.707031 232.199219 85.519531 231.871094 C 84.289062 229.285156 84.40625 225.699219 85.023438 222.949219 C 85.90625 220.734375 87.503906 218.859375 88.96875 217 C 89.542969 216.265625 90.113281 215.53125 90.6875 214.792969 C 91.550781 213.679688 92.421875 212.5625 93.289062 211.449219 C 94.300781 210.148438 95.308594 208.84375 96.3125 207.539062 C 97.960938 205.394531 99.621094 203.257812 101.28125 201.125 C 102.507812 199.550781 103.722656 197.976562 104.9375 196.398438 C 106.585938 194.253906 108.246094 192.117188 109.90625 189.984375 C 111.132812 188.410156 112.347656 186.835938 113.5625 185.257812 C 115.621094 182.578125 117.695312 179.910156 119.777344 177.246094 C 120.203125 176.695312 120.625 176.140625 121.042969 175.582031 C 122.121094 174.152344 123.066406 172.90625 124.613281 171.960938 C 124.878906 171.792969 125.144531 171.628906 125.417969 171.457031 C 127.4375 170.359375 129.65625 170.472656 131.890625 170.703125 C 134.007812 171.464844 135.707031 173.144531 136.921875 175.015625 C 137.308594 175.84375 137.65625 176.683594 138 177.53125 C 138.179688 177.160156 138.359375 176.785156 138.539062 176.402344 C 139.949219 173.492188 141.371094 170.726562 143.390625 168.1875 C 143.621094 167.894531 143.851562 167.601562 144.089844 167.296875 C 153.695312 155.851562 171.480469 153.445312 183.40625 162.707031 Z M 183.40625 162.707031 "/>
<path style=" stroke:none;fill-rule:nonzero;fill:rgb(99.215686%,71.764708%,18.82353%);fill-opacity:1;" d="M 283.1875 86.609375 C 283.449219 86.808594 283.707031 87.011719 283.976562 87.21875 C 290.191406 92.214844 294.929688 101.046875 296.125 108.890625 C 296.164062 109.125 296.203125 109.359375 296.246094 109.601562 C 297.726562 120.160156 294.457031 130.546875 288.148438 139.003906 C 287.605469 139.714844 287.058594 140.429688 286.511719 141.140625 C 281.621094 147.511719 277.507812 153.683594 275.386719 161.484375 C 275.070312 162.640625 274.742188 163.785156 274.378906 164.929688 C 274.296875 165.1875 274.21875 165.449219 274.132812 165.714844 C 273.683594 166.761719 273.003906 167.253906 272.046875 167.828125 C 270.792969 168.246094 269.667969 168.242188 268.367188 168.246094 C 267.972656 168.246094 267.972656 168.246094 267.566406 168.25 C 266.695312 168.257812 265.824219 168.257812 264.953125 168.261719 C 264.34375 168.261719 263.738281 168.265625 263.132812 168.265625 C 261.859375 168.269531 260.589844 168.273438 259.316406 168.273438 C 257.6875 168.277344 256.058594 168.285156 254.433594 168.292969 C 253.179688 168.300781 251.925781 168.304688 250.671875 168.304688 C 250.074219 168.304688 249.472656 168.308594 248.871094 168.3125 C 248.03125 168.320312 247.191406 168.320312 246.351562 168.316406 C 246.101562 168.320312 245.855469 168.320312 245.601562 168.324219 C 243.730469 168.308594 242.597656 167.820312 241.261719 166.535156 C 240.519531 165.203125 240.277344 163.78125 239.949219 162.300781 C 238.203125 154.984375 234.511719 149.089844 229.890625 143.226562 C 221.828125 132.796875 217.542969 122.246094 219.023438 108.90625 C 220.355469 99.523438 225.972656 90.777344 233.453125 85.089844 C 248.574219 73.929688 268.839844 74.660156 283.1875 86.609375 Z M 283.1875 86.609375 "/>
<path style=" stroke:none;fill-rule:nonzero;fill:rgb(78.431374%,80.784315%,81.568629%);fill-opacity:1;" d="M 218.859375 242.9375 C 227.484375 242.886719 236.109375 242.847656 244.734375 242.824219 C 248.738281 242.8125 252.742188 242.800781 256.75 242.773438 C 260.238281 242.753906 263.730469 242.738281 267.21875 242.734375 C 269.070312 242.730469 270.917969 242.726562 272.765625 242.710938 C 274.503906 242.695312 276.246094 242.691406 277.984375 242.695312 C 278.625 242.691406 279.261719 242.6875 279.898438 242.679688 C 285.324219 242.613281 285.324219 242.613281 286.976562 243.984375 C 288.28125 245.625 288.28125 246.699219 288.292969 248.730469 C 288.292969 249.019531 288.296875 249.308594 288.296875 249.605469 C 288.300781 250.21875 288.304688 250.835938 288.304688 251.449219 C 288.308594 252.386719 288.320312 253.324219 288.332031 254.257812 C 288.332031 254.855469 288.335938 255.453125 288.335938 256.050781 C 288.339844 256.328125 288.347656 256.609375 288.351562 256.898438 C 288.34375 258.539062 288.226562 259.644531 287.140625 260.90625 C 285.242188 262.265625 283.320312 262.125 281.078125 262.089844 C 280.707031 262.085938 280.335938 262.085938 279.953125 262.085938 C 278.769531 262.078125 277.585938 262.066406 276.40625 262.050781 C 275.601562 262.046875 274.796875 262.039062 273.992188 262.035156 C 272.027344 262.027344 270.0625 262.003906 268.09375 261.984375 C 268.09375 266.609375 268.09375 271.234375 268.09375 276 C 269.261719 275.984375 270.429688 275.964844 271.636719 275.949219 C 272.769531 275.9375 273.902344 275.929688 275.039062 275.921875 C 275.824219 275.914062 276.613281 275.90625 277.398438 275.890625 C 278.53125 275.875 279.664062 275.867188 280.800781 275.859375 C 281.148438 275.851562 281.5 275.84375 281.859375 275.835938 C 283.984375 275.835938 285.15625 276.039062 286.78125 277.4375 C 288.191406 279.042969 288.277344 280.515625 288.292969 282.578125 C 288.292969 282.832031 288.296875 283.089844 288.296875 283.355469 C 288.300781 283.898438 288.304688 284.441406 288.304688 284.984375 C 288.308594 285.808594 288.320312 286.632812 288.332031 287.460938 C 288.332031 287.988281 288.335938 288.515625 288.335938 289.046875 C 288.34375 289.414062 288.34375 289.414062 288.351562 289.789062 C 288.339844 292.035156 287.707031 293.328125 286.238281 294.992188 C 284.691406 296.179688 282.953125 295.992188 281.078125 295.941406 C 280.75 295.941406 280.417969 295.9375 280.078125 295.9375 C 278.855469 295.925781 277.628906 295.898438 276.40625 295.878906 C 273.664062 295.839844 270.921875 295.804688 268.09375 295.765625 C 268.09375 301.457031 268.09375 307.152344 268.09375 313.015625 C 273.4375 312.839844 273.4375 312.839844 278.78125 312.648438 C 279.453125 312.628906 280.125 312.609375 280.800781 312.59375 C 281.316406 312.570312 281.316406 312.570312 281.847656 312.550781 C 283.933594 312.503906 285.15625 312.648438 286.78125 314.09375 C 287.886719 315.15625 288.191406 315.683594 288.398438 317.222656 C 288.40625 317.734375 288.402344 318.242188 288.398438 318.753906 C 288.398438 319.027344 288.398438 319.300781 288.398438 319.578125 C 288.398438 320.15625 288.394531 320.726562 288.386719 321.300781 C 288.375 322.179688 288.378906 323.050781 288.382812 323.929688 C 288.382812 324.488281 288.378906 325.046875 288.375 325.605469 C 288.375 325.863281 288.375 326.125 288.378906 326.394531 C 288.347656 327.988281 288.109375 328.992188 287.140625 330.265625 C 285.675781 331.585938 284.621094 332.109375 282.65625 332.105469 C 282.171875 332.105469 282.171875 332.105469 281.675781 332.105469 C 281.328125 332.101562 280.980469 332.101562 280.625 332.097656 C 280.085938 332.097656 280.085938 332.097656 279.539062 332.097656 C 278.398438 332.09375 277.253906 332.089844 276.113281 332.085938 C 275.335938 332.082031 274.5625 332.082031 273.789062 332.078125 C 271.890625 332.074219 269.992188 332.070312 268.09375 332.0625 C 268.09375 332.296875 268.09375 332.527344 268.097656 332.769531 C 268.121094 338.445312 268.140625 344.125 268.148438 349.804688 C 268.15625 352.546875 268.164062 355.292969 268.175781 358.039062 C 268.183594 360.433594 268.191406 362.828125 268.195312 365.222656 C 268.195312 366.488281 268.199219 367.753906 268.207031 369.023438 C 268.21875 370.4375 268.21875 371.855469 268.214844 373.269531 C 268.21875 373.6875 268.226562 374.109375 268.226562 374.539062 C 268.21875 376.933594 268.09375 378.691406 266.398438 380.53125 C 266.1875 380.703125 265.976562 380.871094 265.757812 381.050781 C 265.546875 381.226562 265.335938 381.402344 265.117188 381.585938 C 263.304688 382.851562 260.855469 382.554688 258.75 382.375 C 256.800781 381.777344 255.597656 380.386719 254.4375 378.78125 C 254.078125 377.695312 254.03125 376.976562 254.035156 375.839844 C 254.035156 375.261719 254.035156 375.261719 254.03125 374.671875 C 254.035156 374.039062 254.035156 374.039062 254.035156 373.390625 C 254.035156 372.945312 254.035156 372.5 254.035156 372.042969 C 254.035156 370.820312 254.039062 369.597656 254.042969 368.378906 C 254.042969 367.101562 254.042969 365.824219 254.042969 364.546875 C 254.046875 362.132812 254.046875 359.714844 254.050781 357.296875 C 254.058594 354.03125 254.058594 350.765625 254.0625 347.5 C 254.066406 342.351562 254.074219 337.207031 254.078125 332.0625 C 243.996094 332.0625 233.917969 332.0625 223.53125 332.0625 C 223.53125 325.777344 223.53125 319.492188 223.53125 313.015625 C 233.613281 313.015625 243.691406 313.015625 254.078125 313.015625 C 254.078125 307.324219 254.078125 301.628906 254.078125 295.765625 C 244.828125 295.765625 235.578125 295.765625 226.046875 295.765625 C 226.921875 294.234375 227.765625 292.8125 228.742188 291.363281 C 231.929688 286.398438 231.867188 282.039062 232.15625 276 C 239.390625 276 246.625 276 254.078125 276 C 254.078125 271.375 254.078125 266.75 254.078125 261.984375 C 245.421875 261.984375 236.761719 261.984375 227.84375 261.984375 C 226.183594 258.425781 224.523438 254.867188 222.8125 251.203125 C 221.175781 247.90625 221.175781 247.90625 219.507812 244.625 C 219.21875 244.015625 219.21875 244.015625 218.859375 242.9375 Z M 218.859375 242.9375 "/>
<path style=" stroke:none;fill-rule:nonzero;fill:rgb(78.431374%,80.784315%,81.568629%);fill-opacity:1;" d="M 82.027344 242.851562 C 82.71875 242.847656 82.71875 242.847656 83.425781 242.847656 C 83.9375 242.851562 84.449219 242.851562 84.957031 242.855469 C 85.496094 242.855469 86.035156 242.855469 86.574219 242.855469 C 88.035156 242.855469 89.496094 242.859375 90.957031 242.863281 C 92.484375 242.867188 94.011719 242.871094 95.539062 242.871094 C 98.429688 242.871094 101.320312 242.878906 104.214844 242.886719 C 107.503906 242.894531 110.796875 242.898438 114.089844 242.902344 C 120.863281 242.910156 127.632812 242.921875 134.40625 242.9375 C 134.414062 244.496094 134.421875 246.050781 134.425781 247.609375 C 134.425781 248.136719 134.429688 248.660156 134.433594 249.1875 C 134.457031 253.472656 134.261719 257.695312 134.046875 261.984375 C 126.574219 261.984375 119.105469 261.984375 111.40625 261.984375 C 111.40625 266.726562 111.40625 271.472656 111.40625 276.359375 C 118.878906 276.359375 126.347656 276.359375 134.046875 276.359375 C 134.046875 282.761719 134.046875 289.167969 134.046875 295.765625 C 126.574219 295.765625 119.105469 295.765625 111.40625 295.765625 C 111.40625 301.339844 111.40625 306.914062 111.40625 312.65625 C 113.898438 312.65625 116.386719 312.65625 118.953125 312.65625 C 118.945312 313.183594 118.9375 313.710938 118.925781 314.253906 C 118.863281 320.230469 119.195312 326.109375 119.671875 332.0625 C 116.945312 332.0625 114.214844 332.0625 111.40625 332.0625 C 111.410156 332.632812 111.410156 333.207031 111.414062 333.792969 C 111.445312 339.175781 111.464844 344.558594 111.480469 349.941406 C 111.488281 352.710938 111.496094 355.476562 111.515625 358.246094 C 111.53125 360.660156 111.539062 363.070312 111.539062 365.484375 C 111.542969 366.761719 111.546875 368.039062 111.558594 369.316406 C 111.570312 370.742188 111.570312 372.167969 111.570312 373.59375 C 111.574219 374.019531 111.582031 374.441406 111.585938 374.875 C 111.570312 377.5625 111.28125 378.867188 109.394531 380.808594 C 107.070312 382.664062 104.949219 382.566406 102.0625 382.375 C 100.179688 381.769531 99.253906 380.730469 98.109375 379.140625 C 97.492188 377.847656 97.300781 376.835938 97.304688 375.410156 C 97.300781 375.023438 97.300781 374.640625 97.300781 374.246094 C 97.304688 373.832031 97.304688 373.414062 97.308594 372.984375 C 97.308594 372.539062 97.308594 372.097656 97.308594 371.644531 C 97.308594 370.433594 97.3125 369.226562 97.316406 368.019531 C 97.320312 366.753906 97.324219 365.488281 97.324219 364.226562 C 97.324219 361.832031 97.332031 359.441406 97.339844 357.046875 C 97.347656 354.324219 97.351562 351.597656 97.355469 348.871094 C 97.363281 343.269531 97.375 337.667969 97.390625 332.0625 C 97.183594 332.066406 96.980469 332.066406 96.765625 332.070312 C 94.613281 332.105469 92.464844 332.125 90.3125 332.140625 C 89.511719 332.148438 88.707031 332.15625 87.90625 332.171875 C 86.75 332.1875 85.597656 332.195312 84.441406 332.203125 C 83.90625 332.214844 83.90625 332.214844 83.359375 332.226562 C 81.125 332.226562 79.8125 331.9375 77.984375 330.625 C 76.070312 328.519531 76.46875 325.90625 76.460938 323.234375 C 76.457031 322.433594 76.445312 321.632812 76.433594 320.832031 C 76.433594 320.324219 76.429688 319.808594 76.429688 319.296875 C 76.425781 318.835938 76.421875 318.371094 76.417969 317.894531 C 76.613281 315.953125 77.246094 314.886719 78.515625 313.429688 C 80.101562 312.214844 81.933594 312.433594 83.84375 312.480469 C 84.230469 312.484375 84.621094 312.484375 85.019531 312.488281 C 86.253906 312.5 87.488281 312.523438 88.71875 312.542969 C 89.558594 312.554688 90.398438 312.5625 91.234375 312.566406 C 93.289062 312.585938 95.339844 312.621094 97.390625 312.65625 C 97.390625 307.082031 97.390625 301.507812 97.390625 295.765625 C 96.171875 295.78125 94.949219 295.800781 93.691406 295.816406 C 92.507812 295.828125 91.324219 295.835938 90.140625 295.84375 C 89.316406 295.851562 88.496094 295.859375 87.671875 295.875 C 86.488281 295.890625 85.308594 295.898438 84.125 295.90625 C 83.574219 295.917969 83.574219 295.917969 83.015625 295.929688 C 80.929688 295.929688 79.574219 295.824219 77.984375 294.328125 C 76.867188 292.675781 76.742188 291.148438 76.75 289.207031 C 76.75 288.929688 76.746094 288.648438 76.746094 288.359375 C 76.742188 287.773438 76.742188 287.1875 76.746094 286.601562 C 76.75 285.703125 76.738281 284.8125 76.726562 283.917969 C 76.726562 283.34375 76.726562 282.773438 76.726562 282.199219 C 76.726562 281.933594 76.71875 281.667969 76.714844 281.394531 C 76.738281 279.546875 77.148438 278.480469 78.34375 277.078125 C 79.441406 276.390625 80.273438 276.269531 81.5625 276.277344 C 82.089844 276.277344 82.089844 276.277344 82.628906 276.277344 C 83.195312 276.28125 83.195312 276.28125 83.773438 276.289062 C 84.359375 276.289062 84.359375 276.289062 84.949219 276.292969 C 86.195312 276.296875 87.433594 276.304688 88.675781 276.3125 C 89.519531 276.316406 90.359375 276.320312 91.199219 276.324219 C 93.265625 276.332031 95.328125 276.347656 97.390625 276.359375 C 97.390625 271.617188 97.390625 266.871094 97.390625 261.984375 C 95.519531 262.007812 95.519531 262.007812 93.613281 262.035156 C 92.402344 262.046875 91.195312 262.054688 89.984375 262.0625 C 89.144531 262.070312 88.308594 262.078125 87.464844 262.09375 C 86.257812 262.109375 85.050781 262.117188 83.84375 262.125 C 83.285156 262.136719 83.285156 262.136719 82.710938 262.148438 C 80.601562 262.148438 79.25 262.039062 77.625 260.546875 C 76.625 259.265625 76.789062 257.695312 76.785156 256.136719 C 76.78125 255.847656 76.78125 255.558594 76.777344 255.261719 C 76.773438 254.65625 76.773438 254.046875 76.773438 253.4375 C 76.769531 252.511719 76.757812 251.585938 76.746094 250.660156 C 76.742188 250.066406 76.742188 249.472656 76.738281 248.882812 C 76.734375 248.605469 76.730469 248.328125 76.726562 248.046875 C 76.742188 246.191406 77.09375 245.113281 78.34375 243.65625 C 79.5625 242.855469 80.589844 242.847656 82.027344 242.851562 Z M 82.027344 242.851562 "/>
<path style=" stroke:none;fill-rule:nonzero;fill:rgb(69.01961%,71.764708%,74.117649%);fill-opacity:1;" d="M 247.523438 173.878906 C 247.769531 173.878906 248.015625 173.875 248.269531 173.875 C 249.082031 173.867188 249.894531 173.867188 250.707031 173.863281 C 251.269531 173.863281 251.835938 173.859375 252.402344 173.859375 C 253.585938 173.855469 254.773438 173.851562 255.957031 173.851562 C 257.476562 173.847656 258.992188 173.839844 260.507812 173.832031 C 261.675781 173.824219 262.84375 173.820312 264.011719 173.820312 C 264.570312 173.820312 265.128906 173.816406 265.6875 173.8125 C 266.472656 173.804688 267.253906 173.804688 268.039062 173.808594 C 268.484375 173.808594 268.929688 173.804688 269.390625 173.804688 C 270.75 173.953125 271.605469 174.296875 272.765625 175.015625 C 273.667969 176.371094 273.617188 176.996094 273.484375 178.609375 C 273.128906 180.214844 272.679688 181.230469 271.460938 182.359375 C 269.972656 183.050781 268.644531 183.207031 267.015625 183.28125 C 267.035156 183.5 267.058594 183.71875 267.078125 183.941406 C 267.21875 186.515625 266.695312 188.347656 265.21875 190.46875 C 263.492188 192.390625 261.542969 193.851562 258.917969 194.175781 C 255.742188 194.316406 253.195312 193.457031 250.710938 191.480469 C 249.042969 189.890625 248.078125 188.183594 247.882812 185.871094 C 247.878906 185 247.902344 184.148438 247.96875 183.28125 C 247.652344 183.269531 247.652344 183.269531 247.324219 183.253906 C 245.449219 183.117188 244.265625 182.933594 242.9375 181.484375 C 241.953125 179.890625 241.921875 177.910156 242.21875 176.09375 C 243.757812 174.054688 245.082031 173.890625 247.523438 173.878906 Z M 247.523438 173.878906 "/>
<path style=" stroke:none;fill-rule:nonzero;fill:rgb(99.607843%,99.215686%,97.647059%);fill-opacity:1;" d="M 274.921875 110.328125 C 275.683594 111.46875 275.746094 111.863281 275.507812 113.179688 C 275.03125 114.734375 274.121094 116.085938 273.28125 117.46875 C 267.230469 127.792969 264.171875 138.207031 263.988281 150.195312 C 263.976562 150.597656 263.964844 151 263.953125 151.417969 C 263.945312 151.785156 263.9375 152.148438 263.929688 152.523438 C 263.78125 153.453125 263.78125 153.453125 263.3125 154.125 C 262.703125 154.53125 262.703125 154.53125 261.398438 154.441406 C 260.1875 154.171875 260.1875 154.171875 259.828125 153.8125 C 258.6875 139.984375 262.792969 126.726562 269.890625 115 C 269.648438 115.121094 269.402344 115.242188 269.152344 115.367188 C 268.816406 115.527344 268.484375 115.6875 268.140625 115.851562 C 267.8125 116.011719 267.488281 116.167969 267.152344 116.332031 C 264.09375 117.5 261.03125 117.652344 257.785156 117.648438 C 257.375 117.648438 256.960938 117.648438 256.539062 117.648438 C 252.332031 117.589844 248.933594 116.683594 245.09375 115 C 245.292969 115.3125 245.496094 115.628906 245.699219 115.949219 C 252.160156 126.28125 255.214844 137.890625 255.222656 150.0625 C 255.226562 150.414062 255.234375 150.765625 255.238281 151.132812 C 255.238281 151.46875 255.238281 151.804688 255.238281 152.152344 C 255.242188 152.453125 255.242188 152.757812 255.246094 153.066406 C 255.15625 153.8125 255.15625 153.8125 254.4375 154.53125 C 253.179688 154.644531 253.179688 154.644531 251.921875 154.53125 C 251.113281 153.320312 251.109375 152.894531 251.09375 151.476562 C 251.078125 150.882812 251.078125 150.882812 251.066406 150.273438 C 251.0625 149.847656 251.054688 149.421875 251.046875 148.984375 C 250.699219 136.683594 247.4375 125.066406 240.324219 114.910156 C 239.539062 113.660156 239.535156 112.855469 239.703125 111.40625 C 240.542969 110.566406 240.726562 110.574219 241.867188 110.554688 C 243.820312 110.597656 245.34375 111.261719 247.09375 112.078125 C 252.710938 114.644531 259.230469 115.515625 265.175781 113.332031 C 266.039062 112.957031 266.898438 112.574219 267.753906 112.1875 C 268.007812 112.074219 268.261719 111.960938 268.523438 111.84375 C 269.015625 111.621094 269.503906 111.386719 269.988281 111.148438 C 271.707031 110.339844 273.019531 110.125 274.921875 110.328125 Z M 274.921875 110.328125 "/>
<path style=" stroke:none;fill-rule:nonzero;fill:rgb(68.627453%,71.764708%,73.725492%);fill-opacity:1;" d="M 210.660156 135.011719 C 212.414062 135.808594 213.445312 136.789062 214.546875 138.359375 C 215.175781 140.246094 215.304688 142.355469 214.582031 144.238281 C 213.445312 146.175781 212.027344 147.34375 209.875 148.0625 C 207.816406 148.265625 206.253906 148.152344 204.484375 146.984375 C 202.558594 145.371094 201.746094 143.746094 201.429688 141.257812 C 201.519531 139.082031 202.785156 137.5 204.328125 136.066406 C 206.390625 134.691406 208.230469 134.25 210.660156 135.011719 Z M 210.660156 135.011719 "/>
<path style=" stroke:none;fill-rule:nonzero;fill:rgb(68.627453%,71.372551%,73.725492%);fill-opacity:1;" d="M 197.214844 151.671875 C 198.242188 152.484375 199.09375 153.265625 199.453125 154.53125 C 199.621094 156.261719 199.640625 157.050781 198.824219 158.597656 C 197.503906 160.171875 196.605469 160.851562 194.480469 161.046875 C 192.695312 160.941406 191.3125 160.074219 190.109375 158.796875 C 189.5625 157.226562 189.433594 155.8125 189.75 154.171875 C 190.496094 152.816406 191.460938 151.9375 192.757812 151.117188 C 194.347656 150.8125 195.8125 150.847656 197.214844 151.671875 Z M 197.214844 151.671875 "/>
</g>
</svg>
