<?xml version="1.0" encoding="UTF-8"?>
<svg xmlns="http://www.w3.org/2000/svg" xmlns:xlink="http://www.w3.org/1999/xlink" width="1440px" height="2160px" viewBox="0 0 1440 2160" version="1.1">
<g id="surface1">
<path style=" stroke:none;fill-rule:nonzero;fill:rgb(99.607843%,99.607843%,99.607843%);fill-opacity:1;" d="M 0 0 C 475.203125 0 950.398438 0 1440 0 C 1440 712.800781 1440 1425.601562 1440 2160 C 964.796875 2160 489.601562 2160 0 2160 C 0 1447.199219 0 734.398438 0 0 Z M 0 0 "/>
<path style=" stroke:none;fill-rule:nonzero;fill:rgb(69.411767%,72.156864%,74.117649%);fill-opacity:1;" d="M 717.679688 636.6875 C 740.625 656.117188 757.644531 680.96875 760.78125 711.5625 C 763.300781 746.097656 756.253906 776.03125 734.53125 803.421875 C 716.886719 823.644531 692.109375 837.921875 665.15625 840.9375 C 628.453125 842.898438 599.113281 835.984375 570.9375 811.40625 C 560.476562 801.605469 553.503906 790.289062 547.03125 777.65625 C 546.351562 776.359375 545.667969 775.070312 544.964844 773.730469 C 538.46875 759.996094 536.71875 744.734375 534.375 729.84375 C 533.921875 730.472656 533.472656 731.097656 533.011719 731.742188 C 524.15625 744.050781 515.257812 756.320312 506.25 768.515625 C 497.546875 780.292969 488.957031 792.152344 480.402344 804.03125 C 478.09375 807.230469 475.78125 810.417969 473.460938 813.609375 C 465.886719 824.039062 458.351562 834.5 450.964844 845.066406 C 450.300781 846.003906 449.632812 846.949219 448.945312 847.917969 C 445.253906 853.074219 445.253906 853.074219 444.375 859.21875 C 466.195312 859.300781 487.984375 859.144531 509.796875 858.640625 C 552.019531 857.6875 594.234375 857.460938 636.46875 857.402344 C 648.5 857.386719 660.527344 857.359375 672.554688 857.292969 C 681.203125 857.25 689.851562 857.234375 698.503906 857.226562 C 703.59375 857.21875 708.691406 857.210938 713.789062 857.175781 C 719.414062 857.140625 725.039062 857.140625 730.664062 857.152344 C 732.289062 857.132812 733.914062 857.117188 735.59375 857.09375 C 756.011719 857.226562 771.746094 863.113281 786.972656 876.53125 C 788.628906 878.402344 788.628906 878.402344 790.3125 880.3125 C 791.082031 881.160156 791.84375 882.011719 792.632812 882.882812 C 809.429688 902.527344 821.109375 926.851562 833.21875 949.519531 C 835.269531 953.355469 837.347656 957.179688 839.429688 961.003906 C 895.664062 1065.285156 895.664062 1065.285156 886.382812 1109.933594 C 879.15625 1133.160156 861.996094 1150.21875 845.816406 1167.613281 C 843.023438 1170.660156 840.386719 1173.75 837.773438 1176.945312 C 824.617188 1192.074219 807.546875 1204.226562 791.71875 1216.40625 C 790.621094 1217.292969 789.519531 1218.179688 788.386719 1219.09375 C 779.15625 1226.410156 770.625 1229.949219 758.703125 1229.558594 C 749.867188 1228.316406 741.839844 1224 735.46875 1217.8125 C 729.542969 1209.347656 729.03125 1201.199219 729.84375 1191.09375 C 732.925781 1175.777344 746.34375 1164.367188 757.03125 1153.929688 C 759.574219 1151.425781 762.113281 1148.914062 764.648438 1146.402344 C 768.601562 1142.511719 772.558594 1138.621094 776.515625 1134.742188 C 799.898438 1115.03125 799.898438 1115.03125 814.761719 1089.585938 C 814.527344 1086.585938 813.84375 1084.234375 812.8125 1081.40625 C 812.5625 1080.453125 812.320312 1079.503906 812.066406 1078.519531 C 803.113281 1044.507812 785.925781 1006.625 766.40625 977.34375 C 766.398438 979.144531 766.390625 980.941406 766.382812 982.792969 C 766.304688 999.742188 766.203125 1016.691406 766.078125 1033.636719 C 766.011719 1042.347656 765.960938 1051.0625 765.914062 1059.769531 C 765.878906 1068.179688 765.828125 1076.585938 765.753906 1084.996094 C 765.734375 1088.203125 765.71875 1091.410156 765.703125 1094.621094 C 765.695312 1099.109375 765.652344 1103.597656 765.609375 1108.097656 C 765.609375 1109.421875 765.613281 1110.753906 765.613281 1112.125 C 765.492188 1120.5625 764.265625 1125.453125 758.394531 1131.796875 C 757.535156 1132.582031 756.679688 1133.363281 755.792969 1134.167969 C 754.832031 1135.054688 753.882812 1135.941406 752.894531 1136.851562 C 751.40625 1138.207031 751.40625 1138.207031 749.882812 1139.589844 C 723.015625 1163.996094 723.015625 1163.996094 712.617188 1197.773438 C 712.875 1211.351562 718.71875 1223.1875 727.96875 1232.9375 C 737.988281 1242.0625 750.835938 1248.097656 764.507812 1247.679688 C 788.882812 1245.167969 811.898438 1222.066406 828.425781 1205.433594 C 831.09375 1203.75 831.09375 1203.75 834.507812 1203.824219 C 842.027344 1206.589844 846.167969 1211.617188 850.34375 1218.253906 C 851.160156 1219.519531 851.976562 1220.792969 852.816406 1222.105469 C 857.277344 1230.578125 858.238281 1238.335938 858.078125 1247.695312 C 858.078125 1248.660156 858.078125 1249.628906 858.078125 1250.625 C 858.03125 1255.972656 857.722656 1261.230469 857.175781 1266.546875 C 856.113281 1277.964844 855.636719 1289.414062 855.085938 1300.871094 C 854.96875 1303.34375 854.847656 1305.8125 854.730469 1308.289062 C 854.472656 1313.460938 854.222656 1318.636719 853.972656 1323.816406 C 853.660156 1330.335938 853.34375 1336.847656 853.023438 1343.363281 C 851.828125 1367.8125 850.679688 1392.261719 849.8125 1416.722656 C 849.425781 1427.804688 848.90625 1438.863281 848.144531 1449.933594 C 848.003906 1452.3125 848.003906 1452.3125 847.867188 1454.742188 C 846.59375 1473.253906 842.160156 1485.835938 828.632812 1498.710938 C 817.515625 1507.859375 806.761719 1509.871094 792.496094 1509.449219 C 785.65625 1508.707031 780.628906 1506.949219 774.84375 1503.28125 C 773.863281 1502.664062 772.886719 1502.058594 771.878906 1501.429688 C 760.554688 1493.636719 752.972656 1482.855469 749.53125 1469.53125 C 748.433594 1452.992188 750 1436.03125 750.710938 1419.492188 C 750.835938 1416.578125 750.960938 1413.660156 751.082031 1410.746094 C 751.339844 1404.667969 751.597656 1398.597656 751.859375 1392.515625 C 752.191406 1384.789062 752.519531 1377.0625 752.84375 1369.335938 C 753.089844 1363.324219 753.347656 1357.316406 753.601562 1351.3125 C 753.726562 1348.460938 753.84375 1345.613281 753.960938 1342.769531 C 754.519531 1329.683594 755.082031 1316.59375 755.859375 1303.519531 C 755.960938 1301.792969 756.058594 1300.0625 756.167969 1298.277344 C 756.511719 1294.320312 757.089844 1290.585938 757.96875 1286.71875 C 740.359375 1284.117188 722.730469 1281.738281 705.082031 1279.445312 C 682.214844 1276.472656 659.414062 1273.425781 636.765625 1269.050781 C 618.675781 1265.601562 600.5625 1263.816406 582.1875 1262.8125 C 582.40625 1263.617188 582.625 1264.421875 582.855469 1265.25 C 583.570312 1268.347656 583.921875 1271.242188 584.15625 1274.40625 C 584.296875 1276.1875 584.296875 1276.1875 584.429688 1277.996094 C 584.566406 1279.9375 584.566406 1279.9375 584.714844 1281.914062 C 584.816406 1283.296875 584.917969 1284.675781 585.03125 1286.097656 C 585.257812 1289.105469 585.484375 1292.125 585.703125 1295.132812 C 586.3125 1303.351562 586.933594 1311.570312 587.554688 1319.789062 C 587.6875 1321.53125 587.820312 1323.273438 587.953125 1325.070312 C 588.960938 1338.355469 590.015625 1351.640625 591.101562 1364.917969 C 591.179688 1365.894531 591.261719 1366.859375 591.34375 1367.863281 C 592.046875 1376.492188 592.75 1385.121094 593.460938 1393.746094 C 595.113281 1413.84375 596.683594 1433.921875 597.65625 1454.0625 C 597.757812 1455.789062 597.855469 1457.511719 597.957031 1459.292969 C 598.644531 1472.660156 594.984375 1484.113281 586.757812 1494.757812 C 576.957031 1505.082031 563.980469 1508.972656 550.109375 1509.433594 C 535.179688 1509.132812 525.71875 1504.421875 514.964844 1494.132812 C 504.375 1482.121094 502.007812 1467.152344 500.824219 1451.683594 C 500.726562 1450.511719 500.625 1449.339844 500.53125 1448.128906 C 500.308594 1445.574219 500.105469 1443.011719 499.898438 1440.453125 C 499.320312 1433.289062 498.714844 1426.128906 498.105469 1418.972656 C 497.972656 1417.417969 497.84375 1415.875 497.710938 1414.269531 C 496.136719 1395.828125 494.398438 1377.398438 492.65625 1358.964844 C 492.097656 1353.089844 491.550781 1347.210938 491 1341.328125 C 489.527344 1325.667969 488.054688 1310.003906 486.488281 1294.351562 C 479.773438 1226.8125 479.773438 1226.8125 493.625 1208.414062 C 505.78125 1194.074219 519.875 1185.261719 537.1875 1178.4375 C 538.578125 1178.4375 539.96875 1178.4375 541.40625 1178.4375 C 541.40625 1098.617188 541.40625 1018.796875 541.40625 936.5625 C 485.582031 936.78125 485.582031 936.78125 429.75 937.066406 C 418.921875 937.097656 418.921875 937.097656 413.847656 937.097656 C 410.316406 937.105469 406.792969 937.125 403.265625 937.15625 C 397.910156 937.199219 392.546875 937.199219 387.1875 937.199219 C 384.851562 937.230469 384.851562 937.230469 382.46875 937.265625 C 367.867188 937.183594 355.152344 932.804688 344.53125 922.5 C 341.257812 918.5 338.597656 914.363281 336.09375 909.84375 C 335.375 908.597656 335.375 908.597656 334.636719 907.324219 C 329.832031 897.203125 330.285156 883.175781 332.703125 872.417969 C 336.152344 863.746094 342.40625 856.40625 348.132812 849.132812 C 350.390625 846.261719 352.625 843.382812 354.867188 840.5 C 358.25 836.132812 361.648438 831.765625 365.046875 827.410156 C 369.007812 822.328125 372.949219 817.222656 376.875 812.109375 C 383.320312 803.714844 389.816406 795.359375 396.320312 787.007812 C 401.109375 780.855469 405.878906 774.695312 410.625 768.515625 C 417.070312 760.121094 423.566406 751.765625 430.070312 743.414062 C 434.859375 737.261719 439.628906 731.101562 444.375 724.921875 C 452.429688 714.433594 460.539062 703.988281 468.691406 693.574219 C 470.359375 691.414062 472.007812 689.246094 473.648438 687.054688 C 477.859375 681.46875 481.558594 676.589844 487.617188 672.890625 C 488.65625 672.238281 489.691406 671.585938 490.757812 670.914062 C 498.660156 666.628906 507.355469 667.066406 516.09375 667.96875 C 524.382812 670.949219 531.027344 677.527344 535.78125 684.84375 C 537.296875 688.089844 538.652344 691.371094 540 694.6875 C 540.695312 693.230469 541.398438 691.765625 542.117188 690.265625 C 547.625 678.890625 553.191406 668.0625 561.09375 658.125 C 561.996094 656.976562 562.902344 655.824219 563.832031 654.640625 C 601.414062 609.851562 671.015625 600.4375 717.679688 636.6875 Z M 717.679688 636.6875 "/>
<path style=" stroke:none;fill-rule:nonzero;fill:rgb(99.215686%,71.764708%,18.82353%);fill-opacity:1;" d="M 1108.125 338.90625 C 1109.144531 339.691406 1110.160156 340.480469 1111.207031 341.292969 C 1135.523438 360.84375 1154.078125 395.398438 1158.75 426.09375 C 1158.902344 427.007812 1159.058594 427.925781 1159.21875 428.875 C 1165.019531 470.191406 1152.214844 510.835938 1127.535156 543.925781 C 1125.410156 546.714844 1123.273438 549.507812 1121.132812 552.289062 C 1101.996094 577.222656 1085.902344 601.371094 1077.597656 631.890625 C 1076.359375 636.414062 1075.070312 640.90625 1073.65625 645.378906 C 1073.34375 646.390625 1073.027344 647.410156 1072.699219 648.449219 C 1070.941406 652.550781 1068.28125 654.46875 1064.53125 656.71875 C 1059.632812 658.351562 1055.230469 658.34375 1050.132812 658.351562 C 1048.585938 658.359375 1048.585938 658.359375 1047.003906 658.375 C 1043.589844 658.394531 1040.183594 658.402344 1036.773438 658.410156 C 1034.390625 658.417969 1032.019531 658.425781 1029.644531 658.433594 C 1024.671875 658.445312 1019.691406 658.453125 1014.71875 658.460938 C 1008.347656 658.46875 1001.976562 658.503906 995.601562 658.542969 C 990.695312 658.570312 985.796875 658.578125 980.886719 658.578125 C 978.542969 658.585938 976.195312 658.59375 973.84375 658.617188 C 970.554688 658.636719 967.265625 658.636719 963.976562 658.625 C 963.011719 658.636719 962.042969 658.652344 961.046875 658.667969 C 953.730469 658.601562 949.292969 656.683594 944.0625 651.65625 C 941.167969 646.441406 940.210938 640.882812 938.9375 635.097656 C 932.101562 606.460938 917.652344 583.394531 899.574219 560.457031 C 868.03125 519.640625 851.25 478.359375 857.050781 426.152344 C 862.257812 389.441406 884.246094 355.210938 913.511719 332.964844 C 972.679688 289.285156 1051.984375 292.140625 1108.125 338.90625 Z M 1108.125 338.90625 "/>
<path style=" stroke:none;fill-rule:nonzero;fill:rgb(78.431374%,80.784315%,81.568629%);fill-opacity:1;" d="M 856.40625 950.625 C 890.15625 950.425781 923.90625 950.28125 957.65625 950.1875 C 973.332031 950.140625 988.996094 950.082031 1004.671875 949.988281 C 1018.332031 949.90625 1031.988281 949.847656 1045.640625 949.832031 C 1052.878906 949.820312 1060.105469 949.796875 1067.34375 949.730469 C 1074.148438 949.671875 1080.960938 949.65625 1087.769531 949.671875 C 1090.269531 949.664062 1092.757812 949.652344 1095.257812 949.621094 C 1116.488281 949.359375 1116.488281 949.359375 1122.957031 954.726562 C 1128.0625 961.144531 1128.054688 965.339844 1128.097656 973.285156 C 1128.105469 974.421875 1128.113281 975.550781 1128.121094 976.722656 C 1128.136719 979.125 1128.140625 981.527344 1128.148438 983.929688 C 1128.164062 987.597656 1128.207031 991.265625 1128.253906 994.929688 C 1128.257812 997.265625 1128.265625 999.601562 1128.273438 1001.9375 C 1128.289062 1003.03125 1128.308594 1004.121094 1128.324219 1005.25 C 1128.304688 1011.671875 1127.839844 1016 1123.59375 1020.9375 C 1116.160156 1026.253906 1108.644531 1025.707031 1099.878906 1025.566406 C 1098.421875 1025.558594 1096.960938 1025.558594 1095.460938 1025.550781 C 1090.839844 1025.53125 1086.210938 1025.472656 1081.582031 1025.417969 C 1078.441406 1025.398438 1075.289062 1025.375 1072.148438 1025.359375 C 1064.449219 1025.316406 1056.761719 1025.238281 1049.0625 1025.15625 C 1049.0625 1043.253906 1049.0625 1061.351562 1049.0625 1080 C 1053.632812 1079.933594 1058.203125 1079.867188 1062.917969 1079.800781 C 1067.359375 1079.757812 1071.796875 1079.722656 1076.234375 1079.691406 C 1079.320312 1079.664062 1082.394531 1079.625 1085.476562 1079.574219 C 1089.910156 1079.507812 1094.339844 1079.472656 1098.777344 1079.449219 C 1100.148438 1079.421875 1101.519531 1079.390625 1102.933594 1079.363281 C 1111.246094 1079.363281 1115.824219 1080.152344 1122.1875 1085.625 C 1127.703125 1091.902344 1128.046875 1097.671875 1128.097656 1105.738281 C 1128.105469 1106.742188 1128.113281 1107.746094 1128.121094 1108.777344 C 1128.136719 1110.902344 1128.140625 1113.023438 1128.148438 1115.148438 C 1128.164062 1118.378906 1128.207031 1121.609375 1128.253906 1124.847656 C 1128.257812 1126.910156 1128.265625 1128.976562 1128.273438 1131.050781 C 1128.304688 1132.484375 1128.304688 1132.484375 1128.324219 1133.949219 C 1128.289062 1142.738281 1125.804688 1147.800781 1120.0625 1154.3125 C 1114.007812 1158.960938 1107.203125 1158.222656 1099.878906 1158.03125 C 1098.582031 1158.023438 1097.292969 1158.019531 1095.960938 1158.011719 C 1091.167969 1157.972656 1086.371094 1157.871094 1081.582031 1157.785156 C 1070.851562 1157.636719 1060.121094 1157.488281 1049.0625 1157.34375 C 1049.0625 1179.617188 1049.0625 1201.898438 1049.0625 1224.84375 C 1069.972656 1224.164062 1069.972656 1224.164062 1090.875 1223.410156 C 1093.511719 1223.335938 1096.144531 1223.261719 1098.777344 1223.195312 C 1100.808594 1223.109375 1100.808594 1223.109375 1102.882812 1223.019531 C 1111.039062 1222.835938 1115.832031 1223.402344 1122.1875 1229.0625 C 1126.515625 1233.222656 1127.703125 1235.289062 1128.515625 1241.300781 C 1128.542969 1243.300781 1128.539062 1245.300781 1128.507812 1247.300781 C 1128.515625 1248.371094 1128.515625 1249.429688 1128.515625 1250.53125 C 1128.515625 1252.777344 1128.5 1255.019531 1128.472656 1257.269531 C 1128.425781 1260.695312 1128.441406 1264.117188 1128.457031 1267.542969 C 1128.449219 1269.734375 1128.433594 1271.917969 1128.421875 1274.105469 C 1128.425781 1275.125 1128.425781 1276.144531 1128.433594 1277.191406 C 1128.316406 1283.429688 1127.378906 1287.363281 1123.59375 1292.34375 C 1117.859375 1297.507812 1113.734375 1299.558594 1106.050781 1299.535156 C 1104.15625 1299.535156 1104.15625 1299.535156 1102.214844 1299.535156 C 1100.851562 1299.527344 1099.488281 1299.523438 1098.089844 1299.515625 C 1095.988281 1299.507812 1095.988281 1299.507812 1093.851562 1299.507812 C 1089.382812 1299.5 1084.90625 1299.476562 1080.441406 1299.460938 C 1077.40625 1299.457031 1074.382812 1299.449219 1071.351562 1299.441406 C 1063.921875 1299.425781 1056.488281 1299.402344 1049.0625 1299.375 C 1049.070312 1300.289062 1049.070312 1301.199219 1049.078125 1302.144531 C 1049.164062 1324.359375 1049.238281 1346.578125 1049.28125 1368.792969 C 1049.304688 1379.539062 1049.332031 1390.285156 1049.378906 1401.027344 C 1049.421875 1410.394531 1049.449219 1419.761719 1049.457031 1429.132812 C 1049.464844 1434.082031 1049.480469 1439.039062 1049.507812 1444 C 1049.546875 1449.542969 1049.546875 1455.082031 1049.539062 1460.617188 C 1049.554688 1462.257812 1049.574219 1463.898438 1049.589844 1465.582031 C 1049.554688 1474.957031 1049.0625 1481.835938 1042.425781 1489.027344 C 1041.597656 1489.703125 1040.773438 1490.367188 1039.921875 1491.066406 C 1039.09375 1491.753906 1038.265625 1492.449219 1037.417969 1493.160156 C 1030.320312 1498.109375 1020.730469 1496.953125 1012.5 1496.25 C 1004.867188 1493.914062 1000.164062 1488.464844 995.625 1482.1875 C 994.210938 1477.941406 994.042969 1475.128906 994.050781 1470.679688 C 994.050781 1468.417969 994.050781 1468.417969 994.042969 1466.109375 C 994.050781 1463.628906 994.050781 1463.628906 994.058594 1461.09375 C 994.058594 1459.351562 994.058594 1457.605469 994.058594 1455.8125 C 994.058594 1451.039062 994.066406 1446.253906 994.078125 1441.480469 C 994.085938 1436.484375 994.085938 1431.488281 994.085938 1426.496094 C 994.09375 1417.039062 994.101562 1407.582031 994.117188 1398.121094 C 994.136719 1385.339844 994.144531 1372.566406 994.152344 1359.785156 C 994.167969 1339.644531 994.195312 1319.507812 994.21875 1299.375 C 954.769531 1299.375 915.328125 1299.375 874.6875 1299.375 C 874.6875 1274.78125 874.6875 1250.183594 874.6875 1224.84375 C 914.136719 1224.84375 953.578125 1224.84375 994.21875 1224.84375 C 994.21875 1202.570312 994.21875 1180.289062 994.21875 1157.34375 C 958.023438 1157.34375 921.828125 1157.34375 884.53125 1157.34375 C 887.957031 1151.351562 891.253906 1145.785156 895.078125 1140.117188 C 907.550781 1120.6875 907.308594 1103.628906 908.4375 1080 C 936.746094 1080 965.054688 1080 994.21875 1080 C 994.21875 1061.902344 994.21875 1043.804688 994.21875 1025.15625 C 960.34375 1025.15625 926.460938 1025.15625 891.5625 1025.15625 C 885.066406 1011.234375 878.570312 997.308594 871.875 982.96875 C 865.464844 970.070312 865.464844 970.070312 858.949219 957.230469 C 857.8125 954.84375 857.8125 954.84375 856.40625 950.625 Z M 856.40625 950.625 "/>
<path style=" stroke:none;fill-rule:nonzero;fill:rgb(78.431374%,80.784315%,81.568629%);fill-opacity:1;" d="M 320.976562 950.289062 C 323.6875 950.28125 323.6875 950.28125 326.453125 950.273438 C 328.445312 950.289062 330.445312 950.296875 332.445312 950.300781 C 334.554688 950.308594 336.65625 950.300781 338.765625 950.300781 C 344.488281 950.300781 350.199219 950.316406 355.921875 950.339844 C 361.898438 950.355469 367.875 950.359375 373.851562 950.359375 C 385.164062 950.367188 396.476562 950.390625 407.789062 950.421875 C 420.671875 950.457031 433.558594 950.472656 446.441406 950.484375 C 472.9375 950.515625 499.4375 950.558594 525.9375 950.625 C 525.972656 956.71875 525.996094 962.8125 526.019531 968.90625 C 526.019531 970.964844 526.03125 973.023438 526.039062 975.082031 C 526.140625 991.851562 525.375 1008.371094 524.53125 1025.15625 C 495.292969 1025.15625 466.0625 1025.15625 435.9375 1025.15625 C 435.9375 1043.714844 435.9375 1062.28125 435.9375 1081.40625 C 465.175781 1081.40625 494.40625 1081.40625 524.53125 1081.40625 C 524.53125 1106.460938 524.53125 1131.527344 524.53125 1157.34375 C 495.292969 1157.34375 466.0625 1157.34375 435.9375 1157.34375 C 435.9375 1179.15625 435.9375 1200.964844 435.9375 1223.4375 C 445.6875 1223.4375 455.425781 1223.4375 465.46875 1223.4375 C 465.4375 1225.503906 465.402344 1227.570312 465.367188 1229.691406 C 465.125 1253.078125 466.414062 1276.078125 468.28125 1299.375 C 457.609375 1299.375 446.929688 1299.375 435.9375 1299.375 C 435.953125 1301.609375 435.960938 1303.851562 435.972656 1306.148438 C 436.089844 1327.214844 436.171875 1348.277344 436.230469 1369.34375 C 436.257812 1380.175781 436.296875 1391 436.363281 1401.832031 C 436.421875 1411.273438 436.457031 1420.714844 436.464844 1430.15625 C 436.472656 1435.152344 436.492188 1440.148438 436.53125 1445.148438 C 436.574219 1450.730469 436.582031 1456.3125 436.574219 1461.890625 C 436.597656 1463.546875 436.617188 1465.203125 436.640625 1466.902344 C 436.582031 1477.417969 435.445312 1482.523438 428.0625 1490.128906 C 418.96875 1497.378906 410.667969 1497.003906 399.375 1496.25 C 392.007812 1493.882812 388.386719 1489.820312 383.90625 1483.59375 C 381.496094 1478.539062 380.742188 1474.570312 380.757812 1468.988281 C 380.75 1467.488281 380.75 1465.984375 380.742188 1464.441406 C 380.757812 1462.816406 380.765625 1461.183594 380.773438 1459.496094 C 380.773438 1457.769531 380.773438 1456.039062 380.773438 1454.261719 C 380.773438 1449.527344 380.785156 1444.796875 380.808594 1440.074219 C 380.824219 1435.121094 380.828125 1430.179688 380.828125 1425.226562 C 380.835938 1415.867188 380.859375 1406.507812 380.886719 1397.136719 C 380.925781 1386.480469 380.941406 1375.816406 380.953125 1365.152344 C 380.984375 1343.226562 381.027344 1321.304688 381.09375 1299.375 C 380.289062 1299.390625 379.484375 1299.398438 378.648438 1299.410156 C 370.230469 1299.535156 361.816406 1299.625 353.394531 1299.683594 C 350.257812 1299.710938 347.117188 1299.75 343.980469 1299.800781 C 339.460938 1299.867188 334.945312 1299.902344 330.417969 1299.925781 C 328.328125 1299.96875 328.328125 1299.96875 326.191406 1300.011719 C 317.445312 1300.011719 312.304688 1298.882812 305.15625 1293.75 C 297.664062 1285.511719 299.222656 1275.277344 299.195312 1264.828125 C 299.179688 1261.699219 299.136719 1258.566406 299.089844 1255.4375 C 299.085938 1253.4375 299.078125 1251.429688 299.070312 1249.421875 C 299.054688 1247.613281 299.039062 1245.796875 299.03125 1243.929688 C 299.789062 1236.34375 302.269531 1232.167969 307.234375 1226.46875 C 313.441406 1221.714844 320.609375 1222.566406 328.082031 1222.75 C 329.605469 1222.761719 331.121094 1222.769531 332.679688 1222.777344 C 337.515625 1222.824219 342.339844 1222.910156 347.167969 1222.996094 C 350.449219 1223.035156 353.730469 1223.0625 357.011719 1223.09375 C 365.039062 1223.167969 373.066406 1223.304688 381.09375 1223.4375 C 381.09375 1201.625 381.09375 1179.816406 381.09375 1157.34375 C 376.316406 1157.410156 371.542969 1157.476562 366.621094 1157.542969 C 361.992188 1157.585938 357.355469 1157.621094 352.71875 1157.652344 C 349.503906 1157.679688 346.289062 1157.71875 343.066406 1157.769531 C 338.4375 1157.835938 333.816406 1157.871094 329.179688 1157.894531 C 327.035156 1157.9375 327.035156 1157.9375 324.84375 1157.980469 C 316.683594 1157.980469 311.375 1157.578125 305.15625 1151.71875 C 300.785156 1145.25 300.300781 1139.28125 300.328125 1131.679688 C 300.320312 1130.589844 300.316406 1129.496094 300.308594 1128.371094 C 300.292969 1126.078125 300.300781 1123.777344 300.308594 1121.476562 C 300.320312 1117.976562 300.277344 1114.480469 300.234375 1110.980469 C 300.234375 1108.738281 300.234375 1106.5 300.242188 1104.257812 C 300.226562 1103.21875 300.203125 1102.183594 300.191406 1101.117188 C 300.285156 1093.886719 301.890625 1089.710938 306.5625 1084.21875 C 310.855469 1081.523438 314.121094 1081.0625 319.152344 1081.085938 C 321.21875 1081.085938 321.21875 1081.085938 323.328125 1081.089844 C 325.546875 1081.105469 325.546875 1081.105469 327.808594 1081.136719 C 330.09375 1081.136719 330.09375 1081.136719 332.417969 1081.144531 C 337.28125 1081.15625 342.136719 1081.195312 346.992188 1081.230469 C 350.289062 1081.246094 353.578125 1081.261719 356.871094 1081.265625 C 364.949219 1081.296875 373.023438 1081.355469 381.09375 1081.40625 C 381.09375 1062.847656 381.09375 1044.28125 381.09375 1025.15625 C 373.777344 1025.25 373.777344 1025.25 366.3125 1025.355469 C 361.582031 1025.398438 356.851562 1025.433594 352.117188 1025.464844 C 348.832031 1025.492188 345.550781 1025.53125 342.261719 1025.582031 C 337.535156 1025.648438 332.8125 1025.683594 328.082031 1025.707031 C 325.890625 1025.75 325.890625 1025.75 323.648438 1025.792969 C 315.402344 1025.792969 310.109375 1025.375 303.75 1019.53125 C 299.832031 1014.515625 300.484375 1008.375 300.460938 1002.273438 C 300.453125 1001.148438 300.445312 1000.019531 300.4375 998.855469 C 300.425781 996.472656 300.417969 994.09375 300.417969 991.714844 C 300.410156 988.089844 300.359375 984.460938 300.308594 980.835938 C 300.300781 978.523438 300.292969 976.199219 300.285156 973.886719 C 300.269531 972.800781 300.25 971.726562 300.226562 970.621094 C 300.292969 963.363281 301.675781 959.136719 306.5625 953.4375 C 311.332031 950.308594 315.351562 950.28125 320.976562 950.289062 Z M 320.976562 950.289062 "/>
<path style=" stroke:none;fill-rule:nonzero;fill:rgb(69.01961%,71.764708%,74.117649%);fill-opacity:1;" d="M 968.570312 680.398438 C 969.535156 680.390625 970.496094 680.382812 971.484375 680.375 C 974.664062 680.355469 977.839844 680.347656 981.019531 680.339844 C 983.230469 680.332031 985.445312 680.324219 987.65625 680.316406 C 992.292969 680.300781 996.9375 680.296875 1001.574219 680.289062 C 1007.511719 680.28125 1013.445312 680.242188 1019.378906 680.207031 C 1023.949219 680.179688 1028.519531 680.171875 1033.089844 680.171875 C 1035.277344 680.164062 1037.46875 680.15625 1039.652344 680.132812 C 1042.71875 680.113281 1045.78125 680.113281 1048.851562 680.125 C 1050.59375 680.121094 1052.335938 680.113281 1054.132812 680.105469 C 1059.457031 680.683594 1062.808594 682.023438 1067.34375 684.84375 C 1070.882812 690.152344 1070.675781 692.59375 1070.15625 698.90625 C 1068.765625 705.183594 1067.007812 709.160156 1062.246094 713.582031 C 1056.410156 716.285156 1051.214844 716.902344 1044.84375 717.1875 C 1044.925781 718.035156 1045.003906 718.894531 1045.09375 719.765625 C 1045.636719 729.84375 1043.585938 737.007812 1037.8125 745.3125 C 1031.050781 752.835938 1023.433594 758.546875 1013.160156 759.8125 C 1000.730469 760.371094 990.761719 757 981.035156 749.265625 C 974.507812 743.054688 970.746094 736.371094 969.984375 727.316406 C 969.960938 723.917969 970.054688 720.578125 970.3125 717.1875 C 969.066406 717.136719 969.066406 717.136719 967.792969 717.078125 C 960.445312 716.550781 955.824219 715.824219 950.625 710.15625 C 946.773438 703.914062 946.648438 696.167969 947.8125 689.0625 C 953.832031 681.085938 959.011719 680.449219 968.570312 680.398438 Z M 968.570312 680.398438 "/>
<path style=" stroke:none;fill-rule:nonzero;fill:rgb(99.607843%,99.215686%,97.647059%);fill-opacity:1;" d="M 1075.78125 431.71875 C 1078.761719 436.1875 1079.011719 437.730469 1078.082031 442.875 C 1076.207031 448.96875 1072.652344 454.246094 1069.363281 459.667969 C 1045.679688 500.0625 1033.710938 540.804688 1032.992188 587.71875 C 1032.949219 589.300781 1032.90625 590.875 1032.859375 592.5 C 1032.832031 593.9375 1032.800781 595.363281 1032.773438 596.835938 C 1032.1875 600.46875 1032.1875 600.46875 1030.355469 603.097656 C 1027.96875 604.6875 1027.96875 604.6875 1022.871094 604.335938 C 1018.125 603.28125 1018.125 603.28125 1016.71875 601.875 C 1012.25 547.769531 1028.328125 495.886719 1056.09375 450 C 1055.140625 450.476562 1054.191406 450.953125 1053.207031 451.433594 C 1051.898438 452.066406 1050.585938 452.695312 1049.238281 453.339844 C 1047.964844 453.960938 1046.695312 454.578125 1045.386719 455.214844 C 1033.410156 459.777344 1021.429688 460.386719 1008.722656 460.371094 C 1007.117188 460.371094 1005.503906 460.371094 1003.851562 460.363281 C 987.386719 460.136719 974.085938 456.589844 959.0625 450 C 959.847656 451.230469 960.628906 452.460938 961.433594 453.71875 C 986.71875 494.148438 998.671875 539.574219 998.699219 587.195312 C 998.714844 588.582031 998.738281 589.957031 998.753906 591.386719 C 998.753906 592.703125 998.761719 594.015625 998.761719 595.378906 C 998.765625 596.558594 998.773438 597.742188 998.78125 598.960938 C 998.4375 601.875 998.4375 601.875 995.625 604.6875 C 990.703125 605.125 990.703125 605.125 985.78125 604.6875 C 982.625 599.957031 982.601562 598.277344 982.535156 592.742188 C 982.484375 590.40625 982.484375 590.40625 982.433594 588.023438 C 982.410156 586.363281 982.382812 584.691406 982.351562 582.976562 C 980.992188 534.84375 968.230469 489.398438 940.398438 449.65625 C 937.324219 444.753906 937.316406 441.613281 937.96875 435.9375 C 941.25 432.65625 941.976562 432.679688 946.441406 432.613281 C 954.082031 432.78125 960.042969 435.367188 966.886719 438.574219 C 988.871094 448.617188 1014.375 452.023438 1037.652344 443.464844 C 1041.019531 442 1044.382812 440.507812 1047.730469 439 C 1048.726562 438.550781 1049.722656 438.105469 1050.746094 437.644531 C 1052.664062 436.773438 1054.578125 435.863281 1056.472656 434.933594 C 1063.207031 431.769531 1068.332031 430.921875 1075.78125 431.71875 Z M 1075.78125 431.71875 "/>
<path style=" stroke:none;fill-rule:nonzero;fill:rgb(68.627453%,71.764708%,73.725492%);fill-opacity:1;" d="M 824.328125 528.3125 C 831.179688 531.421875 835.222656 535.269531 839.53125 541.40625 C 841.992188 548.796875 842.488281 557.050781 839.664062 564.410156 C 835.21875 571.984375 829.664062 576.570312 821.25 579.375 C 813.191406 580.171875 807.078125 579.71875 800.15625 575.15625 C 792.621094 568.84375 789.441406 562.476562 788.203125 552.742188 C 788.546875 544.242188 793.503906 538.035156 799.539062 532.441406 C 807.621094 527.058594 814.820312 525.320312 824.328125 528.3125 Z M 824.328125 528.3125 "/>
<path style=" stroke:none;fill-rule:nonzero;fill:rgb(68.627453%,71.372551%,73.725492%);fill-opacity:1;" d="M 771.714844 593.503906 C 775.730469 596.683594 779.054688 599.730469 780.46875 604.6875 C 781.121094 611.460938 781.203125 614.546875 778.007812 620.59375 C 772.84375 626.761719 769.320312 629.421875 761.007812 630.183594 C 754.027344 629.765625 748.609375 626.382812 743.90625 621.386719 C 741.765625 615.234375 741.261719 609.695312 742.5 603.28125 C 745.421875 597.972656 749.195312 594.542969 754.277344 591.328125 C 760.496094 590.140625 766.222656 590.265625 771.714844 593.503906 Z M 771.714844 593.503906 "/>
</g>
</svg>
