<?xml version="1.0" encoding="UTF-8"?>
<svg xmlns="http://www.w3.org/2000/svg" xmlns:xlink="http://www.w3.org/1999/xlink" width="600px" height="900px" viewBox="0 0 600 900" version="1.1">
<g id="surface1">
<path style=" stroke:none;fill-rule:nonzero;fill:rgb(99.607843%,99.607843%,99.607843%);fill-opacity:1;" d="M 0 0 C 198 0 396 0 600 0 C 600 297 600 594 600 900 C 402 900 204 900 0 900 C 0 603 0 306 0 0 Z M 0 0 "/>
<path style=" stroke:none;fill-rule:nonzero;fill:rgb(69.411767%,72.156864%,74.117649%);fill-opacity:1;" d="M 299.03125 265.285156 C 308.59375 273.382812 315.6875 283.738281 316.992188 296.484375 C 318.042969 310.875 315.105469 323.347656 306.054688 334.757812 C 298.703125 343.183594 288.378906 349.132812 277.148438 350.390625 C 261.855469 351.207031 249.628906 348.328125 237.890625 338.085938 C 233.53125 334.003906 230.628906 329.289062 227.929688 324.023438 C 227.644531 323.484375 227.363281 322.945312 227.070312 322.386719 C 224.363281 316.664062 223.632812 310.304688 222.65625 304.101562 C 222.46875 304.363281 222.28125 304.625 222.089844 304.890625 C 218.398438 310.023438 214.691406 315.132812 210.9375 320.214844 C 207.3125 325.121094 203.730469 330.0625 200.167969 335.011719 C 199.207031 336.347656 198.242188 337.675781 197.273438 339.003906 C 194.121094 343.351562 190.980469 347.707031 187.902344 352.113281 C 187.625 352.503906 187.347656 352.894531 187.0625 353.300781 C 185.523438 355.449219 185.523438 355.449219 185.15625 358.007812 C 194.246094 358.042969 203.328125 357.976562 212.414062 357.765625 C 230.007812 357.371094 247.597656 357.273438 265.195312 357.25 C 270.207031 357.246094 275.21875 357.234375 280.230469 357.207031 C 283.835938 357.1875 287.4375 357.179688 291.042969 357.179688 C 293.164062 357.175781 295.289062 357.171875 297.414062 357.15625 C 299.757812 357.140625 302.101562 357.140625 304.445312 357.148438 C 305.121094 357.136719 305.796875 357.132812 306.496094 357.121094 C 315.003906 357.179688 321.5625 359.632812 327.90625 365.222656 C 328.59375 366 328.59375 366 329.296875 366.796875 C 329.617188 367.152344 329.933594 367.503906 330.265625 367.867188 C 337.261719 376.054688 342.128906 386.1875 347.175781 395.632812 C 348.027344 397.230469 348.894531 398.824219 349.761719 400.417969 C 373.195312 443.867188 373.195312 443.867188 369.328125 462.472656 C 366.316406 472.148438 359.164062 479.257812 352.421875 486.503906 C 351.261719 487.773438 350.160156 489.0625 349.070312 490.394531 C 343.589844 496.699219 336.476562 501.761719 329.882812 506.835938 C 329.425781 507.207031 328.96875 507.574219 328.496094 507.957031 C 324.648438 511.003906 321.09375 512.480469 316.125 512.316406 C 312.445312 511.796875 309.101562 510 306.445312 507.421875 C 303.976562 503.894531 303.761719 500.5 304.101562 496.289062 C 305.386719 489.90625 310.976562 485.152344 315.429688 480.804688 C 316.488281 479.761719 317.546875 478.714844 318.601562 477.667969 C 320.25 476.046875 321.898438 474.425781 323.546875 472.808594 C 333.292969 464.597656 333.292969 464.597656 339.484375 453.996094 C 339.386719 452.742188 339.101562 451.765625 338.671875 450.585938 C 338.566406 450.1875 338.46875 449.792969 338.359375 449.382812 C 334.632812 435.210938 327.46875 419.425781 319.335938 407.226562 C 319.332031 407.976562 319.328125 408.726562 319.328125 409.496094 C 319.292969 416.558594 319.25 423.621094 319.199219 430.683594 C 319.171875 434.3125 319.148438 437.941406 319.132812 441.570312 C 319.117188 445.074219 319.09375 448.578125 319.0625 452.082031 C 319.054688 453.417969 319.050781 454.753906 319.042969 456.089844 C 319.039062 457.960938 319.023438 459.832031 319.003906 461.707031 C 319.003906 462.257812 319.007812 462.8125 319.007812 463.386719 C 318.953125 466.902344 318.445312 468.9375 315.996094 471.582031 C 315.640625 471.910156 315.28125 472.234375 314.914062 472.570312 C 314.515625 472.941406 314.117188 473.308594 313.707031 473.6875 C 313.085938 474.253906 313.085938 474.253906 312.449219 474.828125 C 301.257812 484.996094 301.257812 484.996094 296.921875 499.070312 C 297.03125 504.730469 299.464844 509.660156 303.320312 513.722656 C 307.496094 517.527344 312.847656 520.039062 318.546875 519.867188 C 328.703125 518.820312 338.289062 509.195312 345.179688 502.265625 C 346.289062 501.5625 346.289062 501.5625 347.710938 501.59375 C 350.84375 502.746094 352.570312 504.839844 354.308594 507.605469 C 354.652344 508.132812 354.988281 508.664062 355.339844 509.210938 C 357.199219 512.742188 357.597656 515.972656 357.53125 519.871094 C 357.53125 520.277344 357.53125 520.679688 357.53125 521.09375 C 357.511719 523.320312 357.386719 525.511719 357.15625 527.726562 C 356.714844 532.484375 356.515625 537.257812 356.285156 542.027344 C 356.238281 543.058594 356.1875 544.089844 356.136719 545.121094 C 356.03125 547.273438 355.925781 549.433594 355.824219 551.589844 C 355.691406 554.304688 355.558594 557.019531 355.425781 559.734375 C 354.929688 569.921875 354.449219 580.109375 354.089844 590.300781 C 353.925781 594.917969 353.710938 599.527344 353.394531 604.136719 C 353.335938 605.128906 353.335938 605.128906 353.277344 606.144531 C 352.746094 613.855469 350.898438 619.097656 345.261719 624.460938 C 340.632812 628.273438 336.152344 629.113281 330.207031 628.9375 C 327.355469 628.628906 325.261719 627.894531 322.851562 626.367188 C 322.441406 626.109375 322.035156 625.859375 321.617188 625.59375 C 316.898438 622.347656 313.738281 617.855469 312.304688 612.304688 C 311.847656 605.414062 312.5 598.347656 312.796875 591.453125 C 312.847656 590.242188 312.898438 589.027344 312.953125 587.8125 C 313.058594 585.277344 313.164062 582.75 313.273438 580.214844 C 313.414062 576.996094 313.550781 573.777344 313.683594 570.554688 C 313.789062 568.050781 313.894531 565.546875 314 563.046875 C 314.054688 561.859375 314.101562 560.671875 314.152344 559.488281 C 314.382812 554.035156 314.617188 548.582031 314.941406 543.132812 C 314.984375 542.414062 315.023438 541.691406 315.070312 540.949219 C 315.214844 539.300781 315.453125 537.742188 315.820312 536.132812 C 308.484375 535.050781 301.136719 534.058594 293.785156 533.101562 C 284.257812 531.863281 274.757812 530.59375 265.320312 528.773438 C 257.78125 527.335938 250.234375 526.589844 242.578125 526.171875 C 242.667969 526.507812 242.761719 526.84375 242.855469 527.1875 C 243.15625 528.480469 243.300781 529.683594 243.398438 531.003906 C 243.457031 531.746094 243.457031 531.746094 243.511719 532.5 C 243.570312 533.308594 243.570312 533.308594 243.632812 534.132812 C 243.671875 534.707031 243.714844 535.28125 243.761719 535.875 C 243.855469 537.128906 243.953125 538.386719 244.042969 539.640625 C 244.296875 543.0625 244.554688 546.488281 244.816406 549.910156 C 244.871094 550.636719 244.925781 551.363281 244.980469 552.113281 C 245.402344 557.648438 245.839844 563.183594 246.292969 568.714844 C 246.324219 569.121094 246.359375 569.523438 246.394531 569.941406 C 246.6875 573.539062 246.980469 577.132812 247.273438 580.726562 C 247.964844 589.101562 248.617188 597.46875 249.023438 605.859375 C 249.066406 606.578125 249.105469 607.296875 249.148438 608.039062 C 249.433594 613.609375 247.910156 618.378906 244.480469 622.816406 C 240.398438 627.117188 234.992188 628.738281 229.210938 628.929688 C 222.992188 628.804688 219.050781 626.84375 214.570312 622.554688 C 210.15625 617.550781 209.171875 611.3125 208.675781 604.867188 C 208.636719 604.378906 208.59375 603.890625 208.554688 603.386719 C 208.460938 602.324219 208.378906 601.253906 208.292969 600.1875 C 208.050781 597.203125 207.796875 594.21875 207.542969 591.238281 C 207.488281 590.589844 207.433594 589.949219 207.378906 589.277344 C 206.722656 581.59375 206 573.917969 205.273438 566.234375 C 205.042969 563.789062 204.8125 561.335938 204.582031 558.886719 C 203.96875 552.363281 203.355469 545.835938 202.703125 539.3125 C 199.90625 511.171875 199.90625 511.171875 205.675781 503.507812 C 210.742188 497.53125 216.613281 493.859375 223.828125 491.015625 C 224.40625 491.015625 224.988281 491.015625 225.585938 491.015625 C 225.585938 457.757812 225.585938 424.5 225.585938 390.234375 C 202.324219 390.324219 202.324219 390.324219 179.0625 390.445312 C 174.550781 390.457031 174.550781 390.457031 172.4375 390.457031 C 170.964844 390.460938 169.496094 390.46875 168.027344 390.480469 C 165.796875 390.5 163.5625 390.5 161.328125 390.5 C 160.355469 390.511719 160.355469 390.511719 159.363281 390.527344 C 153.277344 390.492188 147.980469 388.667969 143.554688 384.375 C 142.191406 382.707031 141.082031 380.984375 140.039062 379.101562 C 139.738281 378.582031 139.738281 378.582031 139.433594 378.050781 C 137.429688 373.835938 137.617188 367.988281 138.625 363.507812 C 140.0625 359.894531 142.667969 356.835938 145.054688 353.804688 C 145.996094 352.609375 146.925781 351.410156 147.859375 350.207031 C 149.269531 348.386719 150.6875 346.570312 152.101562 344.753906 C 153.753906 342.636719 155.394531 340.507812 157.03125 338.378906 C 159.71875 334.882812 162.421875 331.398438 165.132812 327.921875 C 167.128906 325.355469 169.117188 322.789062 171.09375 320.214844 C 173.78125 316.71875 176.484375 313.234375 179.195312 309.757812 C 181.191406 307.191406 183.179688 304.625 185.15625 302.050781 C 188.511719 297.679688 191.890625 293.328125 195.289062 288.988281 C 195.984375 288.089844 196.671875 287.1875 197.355469 286.273438 C 199.109375 283.945312 200.648438 281.914062 203.171875 280.371094 C 203.605469 280.097656 204.039062 279.828125 204.484375 279.546875 C 207.777344 277.761719 211.398438 277.945312 215.039062 278.320312 C 218.492188 279.5625 221.261719 282.304688 223.242188 285.351562 C 223.875 286.703125 224.4375 288.070312 225 289.453125 C 225.289062 288.847656 225.582031 288.234375 225.882812 287.609375 C 228.175781 282.871094 230.496094 278.359375 233.789062 274.21875 C 234.164062 273.738281 234.542969 273.261719 234.929688 272.765625 C 250.589844 254.105469 279.589844 250.183594 299.03125 265.285156 Z M 299.03125 265.285156 "/>
<path style=" stroke:none;fill-rule:nonzero;fill:rgb(99.215686%,71.764708%,18.82353%);fill-opacity:1;" d="M 461.71875 141.210938 C 462.144531 141.539062 462.566406 141.867188 463.003906 142.207031 C 473.136719 150.351562 480.867188 164.75 482.8125 177.539062 C 482.875 177.921875 482.941406 178.300781 483.007812 178.699219 C 485.425781 195.914062 480.089844 212.847656 469.804688 226.636719 C 468.921875 227.796875 468.03125 228.960938 467.136719 230.121094 C 459.164062 240.507812 452.460938 250.570312 449 263.289062 C 448.484375 265.171875 447.945312 267.042969 447.355469 268.910156 C 447.226562 269.328125 447.09375 269.753906 446.957031 270.1875 C 446.226562 271.894531 445.117188 272.695312 443.554688 273.632812 C 441.511719 274.3125 439.679688 274.308594 437.554688 274.3125 C 436.910156 274.316406 436.910156 274.316406 436.25 274.324219 C 434.828125 274.332031 433.410156 274.335938 431.988281 274.335938 C 430.996094 274.339844 430.007812 274.34375 429.019531 274.347656 C 426.945312 274.351562 424.871094 274.355469 422.800781 274.359375 C 420.144531 274.363281 417.488281 274.378906 414.835938 274.394531 C 412.789062 274.40625 410.75 274.40625 408.703125 274.40625 C 407.726562 274.410156 406.746094 274.414062 405.769531 274.421875 C 404.398438 274.433594 403.027344 274.433594 401.65625 274.425781 C 401.253906 274.433594 400.851562 274.4375 400.4375 274.445312 C 397.386719 274.417969 395.539062 273.617188 393.359375 271.523438 C 392.152344 269.351562 391.753906 267.035156 391.222656 264.625 C 388.375 252.691406 382.355469 243.082031 374.824219 233.523438 C 361.679688 216.515625 354.6875 199.316406 357.105469 177.5625 C 359.273438 162.269531 368.4375 148.003906 380.628906 138.734375 C 405.28125 120.535156 438.328125 121.726562 461.71875 141.210938 Z M 461.71875 141.210938 "/>
<path style=" stroke:none;fill-rule:nonzero;fill:rgb(78.431374%,80.784315%,81.568629%);fill-opacity:1;" d="M 356.835938 396.09375 C 370.898438 396.011719 384.960938 395.949219 399.023438 395.910156 C 405.554688 395.890625 412.082031 395.867188 418.613281 395.828125 C 424.304688 395.792969 429.996094 395.769531 435.683594 395.765625 C 438.699219 395.757812 441.710938 395.75 444.726562 395.722656 C 447.5625 395.695312 450.398438 395.691406 453.238281 395.695312 C 454.277344 395.695312 455.316406 395.6875 456.355469 395.675781 C 465.203125 395.566406 465.203125 395.566406 467.898438 397.804688 C 470.027344 400.476562 470.023438 402.226562 470.039062 405.535156 C 470.042969 406.007812 470.046875 406.480469 470.050781 406.96875 C 470.054688 407.96875 470.058594 408.96875 470.0625 409.96875 C 470.070312 411.5 470.085938 413.027344 470.105469 414.554688 C 470.109375 415.527344 470.109375 416.5 470.113281 417.472656 C 470.121094 417.929688 470.128906 418.382812 470.136719 418.855469 C 470.125 421.53125 469.933594 423.332031 468.164062 425.390625 C 465.066406 427.605469 461.933594 427.378906 458.28125 427.320312 C 457.675781 427.316406 457.066406 427.316406 456.441406 427.3125 C 454.515625 427.304688 452.585938 427.28125 450.660156 427.257812 C 449.351562 427.25 448.039062 427.238281 446.726562 427.234375 C 443.519531 427.214844 440.316406 427.183594 437.109375 427.148438 C 437.109375 434.6875 437.109375 442.230469 437.109375 450 C 439.011719 449.972656 440.917969 449.945312 442.882812 449.917969 C 444.734375 449.898438 446.582031 449.882812 448.429688 449.871094 C 449.714844 449.859375 450.996094 449.84375 452.28125 449.824219 C 454.128906 449.796875 455.976562 449.78125 457.824219 449.769531 C 458.394531 449.757812 458.964844 449.746094 459.554688 449.734375 C 463.019531 449.734375 464.925781 450.0625 467.578125 452.34375 C 469.875 454.960938 470.019531 457.363281 470.039062 460.722656 C 470.042969 461.140625 470.046875 461.558594 470.050781 461.992188 C 470.054688 462.875 470.058594 463.761719 470.0625 464.644531 C 470.070312 465.992188 470.085938 467.335938 470.105469 468.6875 C 470.109375 469.546875 470.109375 470.40625 470.113281 471.269531 C 470.125 471.867188 470.125 471.867188 470.136719 472.480469 C 470.121094 476.140625 469.085938 478.25 466.691406 480.964844 C 464.167969 482.902344 461.335938 482.59375 458.28125 482.511719 C 457.742188 482.511719 457.207031 482.507812 456.648438 482.503906 C 454.652344 482.488281 452.65625 482.445312 450.660156 482.410156 C 446.1875 482.347656 441.71875 482.289062 437.109375 482.226562 C 437.109375 491.507812 437.109375 500.789062 437.109375 510.351562 C 445.820312 510.066406 445.820312 510.066406 454.53125 509.753906 C 455.628906 509.722656 456.726562 509.691406 457.824219 509.664062 C 458.671875 509.628906 458.671875 509.628906 459.535156 509.589844 C 462.933594 509.515625 464.929688 509.75 467.578125 512.109375 C 469.382812 513.84375 469.875 514.703125 470.214844 517.207031 C 470.226562 518.042969 470.222656 518.875 470.210938 519.707031 C 470.214844 520.152344 470.214844 520.597656 470.214844 521.054688 C 470.214844 521.992188 470.207031 522.925781 470.195312 523.863281 C 470.179688 525.289062 470.183594 526.714844 470.191406 528.144531 C 470.1875 529.054688 470.179688 529.964844 470.175781 530.878906 C 470.179688 531.300781 470.179688 531.726562 470.179688 532.164062 C 470.132812 534.761719 469.742188 536.402344 468.164062 538.476562 C 465.773438 540.628906 464.054688 541.484375 460.855469 541.472656 C 460.066406 541.472656 460.066406 541.472656 459.257812 541.472656 C 458.6875 541.46875 458.121094 541.46875 457.539062 541.464844 C 456.660156 541.460938 456.660156 541.460938 455.769531 541.460938 C 453.910156 541.457031 452.042969 541.449219 450.183594 541.441406 C 448.917969 541.441406 447.660156 541.4375 446.394531 541.433594 C 443.300781 541.425781 440.203125 541.417969 437.109375 541.40625 C 437.113281 541.789062 437.113281 542.167969 437.117188 542.558594 C 437.152344 551.816406 437.183594 561.074219 437.199219 570.332031 C 437.210938 574.808594 437.222656 579.285156 437.242188 583.761719 C 437.257812 587.664062 437.269531 591.566406 437.273438 595.472656 C 437.277344 597.535156 437.285156 599.601562 437.296875 601.667969 C 437.3125 603.976562 437.3125 606.285156 437.308594 608.589844 C 437.3125 609.273438 437.324219 609.957031 437.328125 610.660156 C 437.3125 614.566406 437.109375 617.429688 434.34375 620.429688 C 434 620.710938 433.65625 620.988281 433.300781 621.277344 C 432.957031 621.5625 432.609375 621.855469 432.257812 622.148438 C 429.300781 624.210938 425.304688 623.730469 421.875 623.4375 C 418.695312 622.464844 416.734375 620.195312 414.84375 617.578125 C 414.253906 615.808594 414.183594 614.636719 414.1875 612.785156 C 414.1875 611.839844 414.1875 611.839844 414.183594 610.878906 C 414.1875 609.84375 414.1875 609.84375 414.191406 608.789062 C 414.191406 608.0625 414.191406 607.335938 414.191406 606.589844 C 414.191406 604.597656 414.195312 602.605469 414.199219 600.617188 C 414.203125 598.535156 414.203125 596.453125 414.203125 594.371094 C 414.207031 590.433594 414.210938 586.492188 414.214844 582.550781 C 414.222656 577.226562 414.226562 571.902344 414.230469 566.578125 C 414.238281 558.183594 414.25 549.796875 414.257812 541.40625 C 397.820312 541.40625 381.386719 541.40625 364.453125 541.40625 C 364.453125 531.160156 364.453125 520.910156 364.453125 510.351562 C 380.890625 510.351562 397.324219 510.351562 414.257812 510.351562 C 414.257812 501.070312 414.257812 491.789062 414.257812 482.226562 C 399.175781 482.226562 384.09375 482.226562 368.554688 482.226562 C 369.984375 479.730469 371.355469 477.410156 372.949219 475.046875 C 378.144531 466.953125 378.046875 459.84375 378.515625 450 C 390.3125 450 402.105469 450 414.257812 450 C 414.257812 442.460938 414.257812 434.917969 414.257812 427.148438 C 400.144531 427.148438 386.027344 427.148438 371.484375 427.148438 C 368.777344 421.347656 366.070312 415.546875 363.28125 409.570312 C 360.609375 404.195312 360.609375 404.195312 357.894531 398.847656 C 357.421875 397.851562 357.421875 397.851562 356.835938 396.09375 Z M 356.835938 396.09375 "/>
<path style=" stroke:none;fill-rule:nonzero;fill:rgb(78.431374%,80.784315%,81.568629%);fill-opacity:1;" d="M 133.742188 395.953125 C 134.871094 395.949219 134.871094 395.949219 136.023438 395.945312 C 136.851562 395.953125 137.6875 395.957031 138.519531 395.960938 C 139.398438 395.960938 140.273438 395.960938 141.152344 395.960938 C 143.535156 395.960938 145.917969 395.964844 148.300781 395.976562 C 150.789062 395.980469 153.28125 395.984375 155.769531 395.984375 C 160.484375 395.988281 165.199219 395.996094 169.914062 396.007812 C 175.28125 396.023438 180.648438 396.03125 186.015625 396.035156 C 197.058594 396.046875 208.097656 396.066406 219.140625 396.09375 C 219.15625 398.632812 219.164062 401.171875 219.175781 403.710938 C 219.175781 404.570312 219.179688 405.425781 219.183594 406.285156 C 219.226562 413.273438 218.90625 420.152344 218.554688 427.148438 C 206.371094 427.148438 194.191406 427.148438 181.640625 427.148438 C 181.640625 434.882812 181.640625 442.617188 181.640625 450.585938 C 193.824219 450.585938 206.003906 450.585938 218.554688 450.585938 C 218.554688 461.027344 218.554688 471.46875 218.554688 482.226562 C 206.371094 482.226562 194.191406 482.226562 181.640625 482.226562 C 181.640625 491.316406 181.640625 500.402344 181.640625 509.765625 C 185.703125 509.765625 189.761719 509.765625 193.945312 509.765625 C 193.933594 510.625 193.917969 511.488281 193.902344 512.371094 C 193.800781 522.117188 194.339844 531.699219 195.117188 541.40625 C 190.671875 541.40625 186.222656 541.40625 181.640625 541.40625 C 181.648438 542.335938 181.648438 543.269531 181.65625 544.230469 C 181.703125 553.007812 181.738281 561.78125 181.761719 570.558594 C 181.773438 575.074219 181.789062 579.582031 181.816406 584.097656 C 181.84375 588.03125 181.855469 591.964844 181.859375 595.898438 C 181.863281 597.980469 181.871094 600.0625 181.886719 602.144531 C 181.90625 604.472656 181.910156 606.796875 181.90625 609.121094 C 181.914062 609.8125 181.925781 610.5 181.933594 611.210938 C 181.910156 615.589844 181.4375 617.71875 178.359375 620.886719 C 174.570312 623.90625 171.113281 623.75 166.40625 623.4375 C 163.335938 622.453125 161.828125 620.757812 159.960938 618.164062 C 158.957031 616.058594 158.640625 614.402344 158.648438 612.078125 C 158.644531 611.453125 158.644531 610.828125 158.640625 610.183594 C 158.648438 609.507812 158.652344 608.824219 158.65625 608.125 C 158.65625 607.402344 158.65625 606.683594 158.65625 605.941406 C 158.65625 603.96875 158.660156 602 158.671875 600.03125 C 158.675781 597.96875 158.679688 595.90625 158.679688 593.84375 C 158.683594 589.945312 158.691406 586.042969 158.703125 582.140625 C 158.71875 577.699219 158.726562 573.257812 158.730469 568.8125 C 158.742188 559.675781 158.761719 550.542969 158.789062 541.40625 C 158.453125 541.414062 158.117188 541.414062 157.769531 541.421875 C 154.261719 541.472656 150.757812 541.511719 147.246094 541.535156 C 145.941406 541.546875 144.632812 541.5625 143.324219 541.582031 C 141.441406 541.609375 139.558594 541.625 137.675781 541.636719 C 136.804688 541.652344 136.804688 541.652344 135.914062 541.671875 C 132.269531 541.671875 130.125 541.203125 127.148438 539.0625 C 124.027344 535.628906 124.675781 531.367188 124.664062 527.011719 C 124.65625 525.707031 124.640625 524.402344 124.621094 523.097656 C 124.617188 522.265625 124.617188 521.429688 124.613281 520.59375 C 124.605469 519.839844 124.601562 519.082031 124.597656 518.304688 C 124.910156 515.144531 125.945312 513.402344 128.015625 511.027344 C 130.601562 509.046875 133.585938 509.402344 136.699219 509.480469 C 137.335938 509.484375 137.96875 509.488281 138.617188 509.492188 C 140.632812 509.507812 142.640625 509.546875 144.652344 509.582031 C 146.019531 509.597656 147.386719 509.609375 148.753906 509.621094 C 152.101562 509.652344 155.445312 509.710938 158.789062 509.765625 C 158.789062 500.675781 158.789062 491.589844 158.789062 482.226562 C 156.800781 482.253906 154.808594 482.28125 152.757812 482.308594 C 150.828125 482.328125 148.898438 482.34375 146.964844 482.355469 C 145.625 482.367188 144.289062 482.382812 142.945312 482.402344 C 141.015625 482.429688 139.089844 482.445312 137.15625 482.457031 C 136.265625 482.472656 136.265625 482.472656 135.351562 482.492188 C 131.953125 482.492188 129.738281 482.324219 127.148438 479.882812 C 125.328125 477.1875 125.125 474.699219 125.136719 471.53125 C 125.132812 471.078125 125.132812 470.625 125.128906 470.152344 C 125.121094 469.199219 125.125 468.242188 125.128906 467.28125 C 125.132812 465.824219 125.117188 464.367188 125.097656 462.910156 C 125.097656 461.976562 125.097656 461.042969 125.101562 460.105469 C 125.09375 459.675781 125.085938 459.242188 125.078125 458.796875 C 125.117188 455.785156 125.789062 454.046875 127.734375 451.757812 C 129.523438 450.632812 130.882812 450.441406 132.980469 450.453125 C 133.839844 450.453125 133.839844 450.453125 134.71875 450.453125 C 135.644531 450.460938 135.644531 450.460938 136.585938 450.472656 C 137.539062 450.472656 137.539062 450.472656 138.507812 450.476562 C 140.535156 450.480469 142.558594 450.496094 144.578125 450.511719 C 145.953125 450.519531 147.324219 450.523438 148.695312 450.527344 C 152.0625 450.539062 155.425781 450.566406 158.789062 450.585938 C 158.789062 442.851562 158.789062 435.117188 158.789062 427.148438 C 155.742188 427.1875 155.742188 427.1875 152.628906 427.230469 C 150.660156 427.25 148.6875 427.265625 146.714844 427.277344 C 145.347656 427.289062 143.980469 427.304688 142.609375 427.324219 C 140.640625 427.351562 138.671875 427.367188 136.699219 427.378906 C 135.789062 427.394531 135.789062 427.394531 134.855469 427.414062 C 131.417969 427.414062 129.210938 427.238281 126.5625 424.804688 C 124.929688 422.714844 125.203125 420.15625 125.191406 417.613281 C 125.1875 417.144531 125.1875 416.675781 125.183594 416.191406 C 125.175781 415.199219 125.175781 414.207031 125.175781 413.214844 C 125.171875 411.703125 125.148438 410.191406 125.128906 408.683594 C 125.125 407.71875 125.121094 406.75 125.117188 405.785156 C 125.113281 405.335938 125.105469 404.886719 125.09375 404.425781 C 125.121094 401.402344 125.699219 399.640625 127.734375 397.265625 C 129.722656 395.960938 131.398438 395.949219 133.742188 395.953125 Z M 133.742188 395.953125 "/>
<path style=" stroke:none;fill-rule:nonzero;fill:rgb(69.01961%,71.764708%,74.117649%);fill-opacity:1;" d="M 403.570312 283.5 C 403.972656 283.496094 404.375 283.492188 404.785156 283.488281 C 406.109375 283.480469 407.433594 283.476562 408.757812 283.476562 C 409.679688 283.472656 410.601562 283.46875 411.523438 283.464844 C 413.457031 283.460938 415.390625 283.457031 417.320312 283.453125 C 419.796875 283.449219 422.269531 283.433594 424.742188 283.417969 C 426.644531 283.40625 428.550781 283.40625 430.453125 283.40625 C 431.367188 283.402344 432.277344 283.398438 433.1875 283.390625 C 434.464844 283.378906 435.742188 283.378906 437.019531 283.386719 C 437.746094 283.382812 438.472656 283.378906 439.222656 283.378906 C 441.441406 283.617188 442.835938 284.175781 444.726562 285.351562 C 446.199219 287.5625 446.113281 288.582031 445.898438 291.210938 C 445.320312 293.828125 444.585938 295.484375 442.601562 297.328125 C 440.171875 298.453125 438.007812 298.710938 435.351562 298.828125 C 435.386719 299.183594 435.417969 299.539062 435.457031 299.902344 C 435.679688 304.101562 434.828125 307.085938 432.421875 310.546875 C 429.605469 313.679688 426.429688 316.0625 422.148438 316.589844 C 416.972656 316.820312 412.816406 315.417969 408.765625 312.195312 C 406.046875 309.605469 404.476562 306.820312 404.160156 303.046875 C 404.148438 301.632812 404.191406 300.242188 404.296875 298.828125 C 403.777344 298.808594 403.777344 298.808594 403.246094 298.78125 C 400.1875 298.5625 398.261719 298.261719 396.09375 295.898438 C 394.488281 293.296875 394.4375 290.070312 394.921875 287.109375 C 397.429688 283.785156 399.589844 283.519531 403.570312 283.5 Z M 403.570312 283.5 "/>
<path style=" stroke:none;fill-rule:nonzero;fill:rgb(99.607843%,99.215686%,97.647059%);fill-opacity:1;" d="M 448.242188 179.882812 C 449.484375 181.746094 449.589844 182.386719 449.199219 184.53125 C 448.417969 187.070312 446.9375 189.269531 445.570312 191.527344 C 435.699219 208.359375 430.710938 225.335938 430.414062 244.882812 C 430.394531 245.542969 430.378906 246.199219 430.359375 246.875 C 430.347656 247.472656 430.335938 248.066406 430.320312 248.679688 C 430.078125 250.195312 430.078125 250.195312 429.316406 251.289062 C 428.320312 251.953125 428.320312 251.953125 426.195312 251.804688 C 424.21875 251.367188 424.21875 251.367188 423.632812 250.78125 C 421.769531 228.238281 428.46875 206.621094 440.039062 187.5 C 439.640625 187.699219 439.246094 187.898438 438.835938 188.097656 C 438.289062 188.359375 437.742188 188.625 437.183594 188.890625 C 436.652344 189.152344 436.125 189.40625 435.578125 189.671875 C 430.585938 191.574219 425.59375 191.828125 420.300781 191.820312 C 419.632812 191.820312 418.960938 191.820312 418.269531 191.816406 C 411.410156 191.722656 405.867188 190.246094 399.609375 187.5 C 399.9375 188.011719 400.261719 188.523438 400.597656 189.050781 C 411.132812 205.894531 416.113281 224.824219 416.125 244.664062 C 416.132812 245.242188 416.140625 245.816406 416.148438 246.410156 C 416.148438 246.960938 416.148438 247.507812 416.148438 248.074219 C 416.152344 248.566406 416.15625 249.058594 416.160156 249.566406 C 416.015625 250.78125 416.015625 250.78125 414.84375 251.953125 C 412.792969 252.136719 412.792969 252.136719 410.742188 251.953125 C 409.425781 249.980469 409.417969 249.28125 409.390625 246.976562 C 409.367188 246.003906 409.367188 246.003906 409.347656 245.011719 C 409.339844 244.316406 409.324219 243.621094 409.3125 242.90625 C 408.746094 222.851562 403.429688 203.914062 391.832031 187.355469 C 390.550781 185.316406 390.546875 184.003906 390.820312 181.640625 C 392.1875 180.273438 392.488281 180.28125 394.351562 180.253906 C 397.535156 180.324219 400.019531 181.402344 402.867188 182.738281 C 412.03125 186.921875 422.65625 188.34375 432.355469 184.777344 C 433.757812 184.167969 435.160156 183.546875 436.554688 182.917969 C 436.96875 182.730469 437.382812 182.542969 437.8125 182.351562 C 438.609375 181.988281 439.40625 181.609375 440.199219 181.222656 C 443.003906 179.902344 445.136719 179.550781 448.242188 179.882812 Z M 448.242188 179.882812 "/>
<path style=" stroke:none;fill-rule:nonzero;fill:rgb(68.627453%,71.764708%,73.725492%);fill-opacity:1;" d="M 343.46875 220.128906 C 346.324219 221.425781 348.011719 223.027344 349.804688 225.585938 C 350.828125 228.664062 351.039062 232.105469 349.859375 235.171875 C 348.007812 238.328125 345.695312 240.238281 342.1875 241.40625 C 338.832031 241.738281 336.28125 241.550781 333.398438 239.648438 C 330.257812 237.019531 328.933594 234.367188 328.417969 230.308594 C 328.5625 226.765625 330.628906 224.183594 333.140625 221.851562 C 336.507812 219.609375 339.507812 218.882812 343.46875 220.128906 Z M 343.46875 220.128906 "/>
<path style=" stroke:none;fill-rule:nonzero;fill:rgb(68.627453%,71.372551%,73.725492%);fill-opacity:1;" d="M 321.546875 247.292969 C 323.222656 248.617188 324.605469 249.886719 325.195312 251.953125 C 325.46875 254.777344 325.5 256.0625 324.167969 258.582031 C 322.019531 261.152344 320.550781 262.257812 317.085938 262.578125 C 314.179688 262.402344 311.921875 260.992188 309.960938 258.910156 C 309.070312 256.347656 308.859375 254.039062 309.375 251.367188 C 310.59375 249.15625 312.164062 247.726562 314.28125 246.386719 C 316.875 245.890625 319.257812 245.945312 321.546875 247.292969 Z M 321.546875 247.292969 "/>
</g>
</svg>
