<?xml version="1.0" encoding="UTF-8"?>
<svg xmlns="http://www.w3.org/2000/svg" xmlns:xlink="http://www.w3.org/1999/xlink" width="320px" height="480px" viewBox="0 0 320 480" version="1.1">
<g id="surface1">
<path style=" stroke:none;fill-rule:nonzero;fill:rgb(99.607843%,99.607843%,99.607843%);fill-opacity:1;" d="M 0 0 C 105.601562 0 211.199219 0 320 0 C 320 158.398438 320 316.800781 320 480 C 214.398438 480 108.800781 480 0 480 C 0 321.601562 0 163.199219 0 0 Z M 0 0 "/>
<path style=" stroke:none;fill-rule:nonzero;fill:rgb(69.411767%,72.156864%,74.117649%);fill-opacity:1;" d="M 159.484375 141.484375 C 164.582031 145.804688 168.367188 151.328125 169.0625 158.125 C 169.621094 165.800781 168.058594 172.449219 163.230469 178.539062 C 159.308594 183.03125 153.800781 186.203125 147.8125 186.875 C 139.65625 187.3125 133.136719 185.773438 126.875 180.3125 C 124.550781 178.136719 123 175.621094 121.5625 172.8125 C 121.410156 172.523438 121.261719 172.238281 121.105469 171.941406 C 119.660156 168.886719 119.269531 165.496094 118.75 162.1875 C 118.648438 162.328125 118.550781 162.464844 118.449219 162.609375 C 116.480469 165.34375 114.503906 168.070312 112.5 170.78125 C 110.566406 173.398438 108.65625 176.035156 106.757812 178.671875 C 106.242188 179.386719 105.730469 180.09375 105.214844 180.800781 C 103.53125 183.121094 101.855469 185.445312 100.214844 187.792969 C 100.066406 188 99.917969 188.210938 99.765625 188.425781 C 98.945312 189.570312 98.945312 189.570312 98.75 190.9375 C 103.597656 190.957031 108.441406 190.921875 113.289062 190.808594 C 122.671875 190.597656 132.050781 190.546875 141.4375 190.535156 C 144.113281 190.53125 146.785156 190.523438 149.457031 190.507812 C 151.378906 190.5 153.300781 190.496094 155.222656 190.496094 C 156.355469 190.492188 157.488281 190.492188 158.621094 190.484375 C 159.871094 190.476562 161.121094 190.476562 162.371094 190.480469 C 162.730469 190.472656 163.09375 190.46875 163.464844 190.464844 C 168.003906 190.496094 171.5 191.804688 174.882812 194.785156 C 175.25 195.199219 175.25 195.199219 175.625 195.625 C 175.796875 195.8125 175.964844 196.003906 176.140625 196.195312 C 179.871094 200.5625 182.46875 205.964844 185.160156 211.003906 C 185.613281 211.855469 186.078125 212.707031 186.539062 213.554688 C 199.035156 236.730469 199.035156 236.730469 196.972656 246.652344 C 195.367188 251.8125 191.554688 255.605469 187.957031 259.46875 C 187.339844 260.144531 186.753906 260.832031 186.171875 261.542969 C 183.25 264.90625 179.453125 267.605469 175.9375 270.3125 C 175.691406 270.507812 175.449219 270.707031 175.195312 270.910156 C 173.144531 272.535156 171.25 273.320312 168.601562 273.234375 C 166.636719 272.957031 164.855469 272 163.4375 270.625 C 162.121094 268.742188 162.007812 266.933594 162.1875 264.6875 C 162.871094 261.285156 165.855469 258.75 168.230469 256.429688 C 168.792969 255.871094 169.359375 255.3125 169.921875 254.753906 C 170.800781 253.890625 171.679688 253.027344 172.558594 252.164062 C 177.753906 247.785156 177.753906 247.785156 181.058594 242.128906 C 181.003906 241.464844 180.855469 240.941406 180.625 240.3125 C 180.570312 240.101562 180.515625 239.890625 180.457031 239.671875 C 178.46875 232.113281 174.648438 223.695312 170.3125 217.1875 C 170.3125 217.589844 170.308594 217.988281 170.308594 218.398438 C 170.289062 222.164062 170.265625 225.929688 170.238281 229.699219 C 170.222656 231.632812 170.214844 233.570312 170.203125 235.503906 C 170.195312 237.371094 170.183594 239.242188 170.167969 241.109375 C 170.164062 241.824219 170.160156 242.535156 170.15625 243.25 C 170.15625 244.246094 170.144531 245.246094 170.136719 246.242188 C 170.136719 246.539062 170.136719 246.835938 170.136719 247.136719 C 170.109375 249.011719 169.835938 250.101562 168.53125 251.511719 C 168.339844 251.683594 168.152344 251.859375 167.953125 252.039062 C 167.742188 252.234375 167.527344 252.433594 167.308594 252.632812 C 166.980469 252.933594 166.980469 252.933594 166.640625 253.242188 C 160.671875 258.664062 160.671875 258.664062 158.359375 266.171875 C 158.417969 269.191406 159.714844 271.820312 161.769531 273.984375 C 163.996094 276.015625 166.851562 277.355469 169.890625 277.261719 C 175.308594 276.703125 180.421875 271.570312 184.09375 267.875 C 184.6875 267.5 184.6875 267.5 185.445312 267.515625 C 187.117188 268.132812 188.035156 269.246094 188.964844 270.722656 C 189.148438 271.003906 189.328125 271.289062 189.515625 271.578125 C 190.507812 273.460938 190.71875 275.183594 190.683594 277.265625 C 190.683594 277.480469 190.683594 277.695312 190.683594 277.917969 C 190.675781 279.105469 190.605469 280.273438 190.484375 281.457031 C 190.246094 283.992188 190.140625 286.535156 190.019531 289.082031 C 189.992188 289.632812 189.964844 290.179688 189.941406 290.730469 C 189.882812 291.878906 189.828125 293.03125 189.773438 294.179688 C 189.703125 295.628906 189.632812 297.078125 189.558594 298.527344 C 189.296875 303.957031 189.039062 309.390625 188.847656 314.828125 C 188.761719 317.289062 188.644531 319.746094 188.476562 322.207031 C 188.445312 322.734375 188.445312 322.734375 188.414062 323.277344 C 188.132812 327.390625 187.148438 330.183594 184.140625 333.046875 C 181.667969 335.078125 179.28125 335.527344 176.109375 335.433594 C 174.589844 335.269531 173.472656 334.878906 172.1875 334.0625 C 171.96875 333.925781 171.753906 333.789062 171.527344 333.652344 C 169.011719 331.917969 167.328125 329.523438 166.5625 326.5625 C 166.316406 322.886719 166.667969 319.117188 166.824219 315.441406 C 166.851562 314.792969 166.878906 314.148438 166.90625 313.5 C 166.964844 312.148438 167.019531 310.800781 167.082031 309.449219 C 167.152344 307.730469 167.226562 306.015625 167.296875 304.296875 C 167.355469 302.960938 167.410156 301.625 167.46875 300.292969 C 167.496094 299.660156 167.519531 299.023438 167.546875 298.394531 C 167.671875 295.484375 167.796875 292.578125 167.96875 289.671875 C 167.992188 289.285156 168.011719 288.902344 168.035156 288.503906 C 168.113281 287.628906 168.242188 286.796875 168.4375 285.9375 C 164.523438 285.359375 160.605469 284.832031 156.683594 284.320312 C 151.601562 283.660156 146.535156 282.984375 141.503906 282.011719 C 137.484375 281.246094 133.457031 280.847656 129.375 280.625 C 129.425781 280.804688 129.472656 280.984375 129.523438 281.167969 C 129.683594 281.855469 129.761719 282.5 129.8125 283.203125 C 129.84375 283.597656 129.84375 283.597656 129.871094 284 C 129.902344 284.429688 129.902344 284.429688 129.9375 284.871094 C 129.960938 285.175781 129.980469 285.484375 130.007812 285.800781 C 130.058594 286.46875 130.105469 287.136719 130.15625 287.808594 C 130.292969 289.632812 130.429688 291.460938 130.566406 293.285156 C 130.597656 293.671875 130.625 294.0625 130.65625 294.460938 C 130.878906 297.410156 131.113281 300.363281 131.355469 303.316406 C 131.375 303.53125 131.390625 303.746094 131.410156 303.96875 C 131.566406 305.886719 131.722656 307.804688 131.878906 309.722656 C 132.246094 314.1875 132.597656 318.648438 132.8125 323.125 C 132.835938 323.507812 132.855469 323.890625 132.878906 324.285156 C 133.03125 327.257812 132.21875 329.804688 130.390625 332.167969 C 128.214844 334.464844 125.328125 335.328125 122.246094 335.429688 C 118.929688 335.363281 116.824219 334.316406 114.4375 332.03125 C 112.082031 329.359375 111.558594 326.035156 111.292969 322.597656 C 111.273438 322.335938 111.25 322.074219 111.230469 321.808594 C 111.179688 321.238281 111.132812 320.667969 111.089844 320.101562 C 110.960938 318.507812 110.824219 316.917969 110.691406 315.328125 C 110.660156 314.980469 110.632812 314.636719 110.601562 314.28125 C 110.253906 310.183594 109.867188 306.089844 109.480469 301.992188 C 109.355469 300.6875 109.234375 299.378906 109.113281 298.074219 C 108.785156 294.59375 108.457031 291.113281 108.109375 287.632812 C 106.617188 272.625 106.617188 272.625 109.695312 268.535156 C 112.394531 265.351562 115.527344 263.390625 119.375 261.875 C 119.683594 261.875 119.992188 261.875 120.3125 261.875 C 120.3125 244.136719 120.3125 226.398438 120.3125 208.125 C 107.90625 208.175781 107.90625 208.175781 95.5 208.238281 C 93.09375 208.242188 93.09375 208.242188 91.964844 208.242188 C 91.183594 208.246094 90.398438 208.25 89.613281 208.257812 C 88.425781 208.265625 87.234375 208.265625 86.042969 208.265625 C 85.523438 208.273438 85.523438 208.273438 84.992188 208.28125 C 81.746094 208.261719 78.921875 207.289062 76.5625 205 C 75.835938 204.113281 75.246094 203.191406 74.6875 202.1875 C 74.527344 201.910156 74.527344 201.910156 74.363281 201.628906 C 73.296875 199.378906 73.398438 196.261719 73.933594 193.871094 C 74.699219 191.941406 76.089844 190.3125 77.363281 188.695312 C 77.863281 188.058594 78.359375 187.417969 78.859375 186.777344 C 79.609375 185.808594 80.367188 184.835938 81.121094 183.867188 C 82.003906 182.738281 82.878906 181.605469 83.75 180.46875 C 85.183594 178.605469 86.625 176.746094 88.070312 174.890625 C 89.136719 173.523438 90.195312 172.15625 91.25 170.78125 C 92.683594 168.917969 94.125 167.058594 95.570312 165.203125 C 96.636719 163.835938 97.695312 162.46875 98.75 161.09375 C 100.539062 158.761719 102.34375 156.441406 104.152344 154.128906 C 104.523438 153.648438 104.890625 153.164062 105.253906 152.679688 C 106.191406 151.4375 107.011719 150.351562 108.359375 149.53125 C 108.589844 149.386719 108.820312 149.242188 109.058594 149.089844 C 110.8125 148.140625 112.746094 148.238281 114.6875 148.4375 C 116.53125 149.101562 118.007812 150.5625 119.0625 152.1875 C 119.398438 152.910156 119.699219 153.636719 120 154.375 C 120.15625 154.050781 120.3125 153.726562 120.46875 153.390625 C 121.695312 150.863281 122.929688 148.457031 124.6875 146.25 C 124.886719 145.996094 125.089844 145.738281 125.296875 145.476562 C 133.648438 135.523438 149.113281 133.429688 159.484375 141.484375 Z M 159.484375 141.484375 "/>
<path style=" stroke:none;fill-rule:nonzero;fill:rgb(99.215686%,71.764708%,18.82353%);fill-opacity:1;" d="M 246.25 75.3125 C 246.476562 75.488281 246.703125 75.664062 246.933594 75.84375 C 252.339844 80.1875 256.460938 87.867188 257.5 94.6875 C 257.535156 94.890625 257.566406 95.09375 257.605469 95.304688 C 258.894531 104.488281 256.046875 113.519531 250.5625 120.871094 C 250.089844 121.492188 249.617188 122.113281 249.140625 122.730469 C 244.886719 128.269531 241.3125 133.636719 239.464844 140.417969 C 239.191406 141.425781 238.90625 142.421875 238.589844 143.417969 C 238.519531 143.644531 238.449219 143.867188 238.378906 144.101562 C 237.988281 145.011719 237.394531 145.4375 236.5625 145.9375 C 235.472656 146.300781 234.496094 146.300781 233.363281 146.300781 C 233.019531 146.300781 233.019531 146.300781 232.667969 146.304688 C 231.910156 146.308594 231.152344 146.3125 230.394531 146.3125 C 229.863281 146.316406 229.335938 146.316406 228.808594 146.316406 C 227.707031 146.320312 226.597656 146.324219 225.492188 146.324219 C 224.078125 146.328125 222.660156 146.335938 221.246094 146.34375 C 220.15625 146.347656 219.066406 146.351562 217.976562 146.351562 C 217.453125 146.351562 216.933594 146.355469 216.410156 146.359375 C 215.679688 146.363281 214.949219 146.363281 214.21875 146.359375 C 214.003906 146.363281 213.789062 146.367188 213.566406 146.371094 C 211.941406 146.355469 210.953125 145.929688 209.792969 144.8125 C 209.148438 143.652344 208.933594 142.417969 208.652344 141.132812 C 207.132812 134.769531 203.921875 129.644531 199.90625 124.546875 C 192.894531 115.476562 189.167969 106.300781 190.457031 94.699219 C 191.613281 86.542969 196.5 78.933594 203.003906 73.992188 C 216.152344 64.285156 233.773438 64.921875 246.25 75.3125 Z M 246.25 75.3125 "/>
<path style=" stroke:none;fill-rule:nonzero;fill:rgb(78.431374%,80.784315%,81.568629%);fill-opacity:1;" d="M 190.3125 211.25 C 197.8125 211.207031 205.3125 211.171875 212.8125 211.152344 C 216.296875 211.144531 219.777344 211.128906 223.261719 211.109375 C 226.296875 211.089844 229.332031 211.078125 232.363281 211.074219 C 233.972656 211.070312 235.578125 211.066406 237.1875 211.050781 C 238.699219 211.039062 240.214844 211.035156 241.726562 211.039062 C 242.28125 211.035156 242.835938 211.035156 243.390625 211.027344 C 248.109375 210.96875 248.109375 210.96875 249.546875 212.160156 C 250.679688 213.585938 250.679688 214.519531 250.6875 216.285156 C 250.691406 216.539062 250.691406 216.789062 250.691406 217.050781 C 250.695312 217.582031 250.699219 218.117188 250.699219 218.652344 C 250.703125 219.464844 250.714844 220.28125 250.722656 221.09375 C 250.722656 221.613281 250.726562 222.132812 250.726562 222.652344 C 250.730469 222.894531 250.734375 223.136719 250.738281 223.386719 C 250.734375 224.816406 250.632812 225.777344 249.6875 226.875 C 248.035156 228.058594 246.367188 227.933594 244.417969 227.902344 C 244.09375 227.902344 243.769531 227.902344 243.4375 227.902344 C 242.410156 227.894531 241.378906 227.882812 240.351562 227.871094 C 239.652344 227.867188 238.953125 227.863281 238.253906 227.859375 C 236.542969 227.847656 234.835938 227.832031 233.125 227.8125 C 233.125 231.835938 233.125 235.855469 233.125 240 C 234.140625 239.984375 235.15625 239.972656 236.203125 239.957031 C 237.191406 239.945312 238.175781 239.9375 239.164062 239.933594 C 239.847656 239.925781 240.53125 239.917969 241.21875 239.90625 C 242.203125 239.890625 243.1875 239.882812 244.171875 239.878906 C 244.476562 239.871094 244.78125 239.863281 245.097656 239.859375 C 246.941406 239.859375 247.960938 240.035156 249.375 241.25 C 250.601562 242.644531 250.675781 243.925781 250.6875 245.71875 C 250.691406 245.941406 250.691406 246.164062 250.691406 246.394531 C 250.695312 246.867188 250.699219 247.339844 250.699219 247.8125 C 250.703125 248.527344 250.714844 249.246094 250.722656 249.964844 C 250.722656 250.425781 250.726562 250.882812 250.726562 251.34375 C 250.734375 251.664062 250.734375 251.664062 250.738281 251.988281 C 250.730469 253.941406 250.179688 255.066406 248.902344 256.511719 C 247.558594 257.546875 246.042969 257.382812 244.417969 257.339844 C 244.128906 257.339844 243.84375 257.335938 243.546875 257.335938 C 242.480469 257.328125 241.417969 257.304688 240.351562 257.285156 C 237.96875 257.253906 235.582031 257.21875 233.125 257.1875 C 233.125 262.136719 233.125 267.089844 233.125 272.1875 C 237.773438 272.035156 237.773438 272.035156 242.417969 271.867188 C 243.003906 271.851562 243.585938 271.835938 244.171875 271.820312 C 244.625 271.800781 244.625 271.800781 245.085938 271.78125 C 246.898438 271.742188 247.960938 271.867188 249.375 273.125 C 250.335938 274.050781 250.601562 274.507812 250.78125 275.84375 C 250.789062 276.289062 250.785156 276.734375 250.78125 277.175781 C 250.78125 277.414062 250.78125 277.652344 250.78125 277.894531 C 250.78125 278.394531 250.777344 278.894531 250.769531 279.394531 C 250.761719 280.15625 250.765625 280.914062 250.769531 281.675781 C 250.765625 282.164062 250.761719 282.648438 250.761719 283.136719 C 250.761719 283.359375 250.761719 283.585938 250.761719 283.820312 C 250.738281 285.207031 250.527344 286.082031 249.6875 287.1875 C 248.414062 288.335938 247.496094 288.789062 245.789062 288.785156 C 245.367188 288.785156 245.367188 288.785156 244.9375 288.785156 C 244.632812 288.785156 244.332031 288.78125 244.019531 288.78125 C 243.554688 288.777344 243.554688 288.777344 243.078125 288.777344 C 242.085938 288.777344 241.089844 288.773438 240.097656 288.769531 C 239.425781 288.769531 238.75 288.765625 238.078125 288.765625 C 236.425781 288.761719 234.777344 288.757812 233.125 288.75 C 233.125 288.953125 233.125 289.15625 233.128906 289.363281 C 233.148438 294.300781 233.164062 299.238281 233.175781 304.175781 C 233.179688 306.5625 233.183594 308.953125 233.195312 311.339844 C 233.203125 313.421875 233.210938 315.503906 233.214844 317.585938 C 233.214844 318.683594 233.21875 319.785156 233.222656 320.886719 C 233.230469 322.121094 233.230469 323.351562 233.230469 324.582031 C 233.234375 324.945312 233.238281 325.3125 233.242188 325.683594 C 233.234375 327.769531 233.125 329.296875 231.652344 330.894531 C 231.464844 331.042969 231.28125 331.191406 231.09375 331.347656 C 230.910156 331.5 230.726562 331.65625 230.535156 331.8125 C 228.960938 332.914062 226.828125 332.65625 225 332.5 C 223.304688 331.980469 222.257812 330.769531 221.25 329.375 C 220.9375 328.429688 220.898438 327.804688 220.898438 326.816406 C 220.898438 326.316406 220.898438 326.316406 220.898438 325.800781 C 220.898438 325.25 220.898438 325.25 220.902344 324.6875 C 220.902344 324.300781 220.902344 323.914062 220.902344 323.515625 C 220.902344 322.453125 220.902344 321.390625 220.90625 320.328125 C 220.910156 319.21875 220.910156 318.109375 220.910156 317 C 220.910156 314.898438 220.910156 312.796875 220.914062 310.691406 C 220.917969 307.851562 220.921875 305.015625 220.921875 302.175781 C 220.925781 297.699219 220.933594 293.222656 220.9375 288.75 C 212.171875 288.75 203.40625 288.75 194.375 288.75 C 194.375 283.285156 194.375 277.820312 194.375 272.1875 C 203.140625 272.1875 211.90625 272.1875 220.9375 272.1875 C 220.9375 267.238281 220.9375 262.285156 220.9375 257.1875 C 212.894531 257.1875 204.851562 257.1875 196.5625 257.1875 C 197.324219 255.855469 198.058594 254.621094 198.90625 253.359375 C 201.679688 249.042969 201.625 245.25 201.875 240 C 208.164062 240 214.457031 240 220.9375 240 C 220.9375 235.976562 220.9375 231.957031 220.9375 227.8125 C 213.410156 227.8125 205.878906 227.8125 198.125 227.8125 C 196.679688 224.71875 195.238281 221.625 193.75 218.4375 C 192.324219 215.570312 192.324219 215.570312 190.878906 212.71875 C 190.625 212.1875 190.625 212.1875 190.3125 211.25 Z M 190.3125 211.25 "/>
<path style=" stroke:none;fill-rule:nonzero;fill:rgb(78.431374%,80.784315%,81.568629%);fill-opacity:1;" d="M 71.328125 211.175781 C 71.929688 211.171875 71.929688 211.171875 72.546875 211.171875 C 72.988281 211.175781 73.433594 211.175781 73.878906 211.179688 C 74.347656 211.179688 74.8125 211.179688 75.28125 211.179688 C 76.550781 211.179688 77.824219 211.183594 79.09375 211.1875 C 80.421875 211.191406 81.75 211.191406 83.078125 211.191406 C 85.59375 211.191406 88.105469 211.199219 90.621094 211.203125 C 93.484375 211.210938 96.347656 211.214844 99.207031 211.21875 C 105.097656 211.226562 110.988281 211.234375 116.875 211.25 C 116.882812 212.605469 116.886719 213.957031 116.894531 215.3125 C 116.894531 215.769531 116.894531 216.226562 116.898438 216.683594 C 116.921875 220.410156 116.75 224.082031 116.5625 227.8125 C 110.066406 227.8125 103.570312 227.8125 96.875 227.8125 C 96.875 231.9375 96.875 236.0625 96.875 240.3125 C 103.371094 240.3125 109.867188 240.3125 116.5625 240.3125 C 116.5625 245.878906 116.5625 251.449219 116.5625 257.1875 C 110.066406 257.1875 103.570312 257.1875 96.875 257.1875 C 96.875 262.035156 96.875 266.882812 96.875 271.875 C 99.042969 271.875 101.207031 271.875 103.4375 271.875 C 103.429688 272.332031 103.421875 272.792969 103.414062 273.265625 C 103.359375 278.460938 103.648438 283.574219 104.0625 288.75 C 101.691406 288.75 99.316406 288.75 96.875 288.75 C 96.878906 289.246094 96.878906 289.746094 96.882812 290.253906 C 96.910156 294.9375 96.925781 299.617188 96.941406 304.296875 C 96.945312 306.707031 96.953125 309.113281 96.96875 311.519531 C 96.980469 313.617188 96.992188 315.714844 96.992188 317.8125 C 96.992188 318.921875 97 320.03125 97.007812 321.144531 C 97.015625 322.382812 97.019531 323.625 97.015625 324.863281 C 97.019531 325.234375 97.027344 325.601562 97.03125 325.976562 C 97.019531 328.316406 96.765625 329.449219 95.125 331.140625 C 93.105469 332.75 91.261719 332.667969 88.75 332.5 C 87.113281 331.972656 86.308594 331.070312 85.3125 329.6875 C 84.777344 328.566406 84.609375 327.683594 84.613281 326.441406 C 84.609375 326.109375 84.609375 325.773438 84.609375 325.429688 C 84.613281 325.070312 84.613281 324.707031 84.617188 324.332031 C 84.617188 323.949219 84.617188 323.566406 84.617188 323.167969 C 84.617188 322.117188 84.621094 321.066406 84.625 320.015625 C 84.628906 318.917969 84.628906 317.816406 84.628906 316.71875 C 84.628906 314.636719 84.636719 312.558594 84.640625 310.476562 C 84.648438 308.105469 84.652344 305.738281 84.65625 303.367188 C 84.664062 298.496094 84.671875 293.621094 84.6875 288.75 C 84.507812 288.753906 84.328125 288.753906 84.144531 288.757812 C 82.273438 288.785156 80.402344 288.804688 78.53125 288.816406 C 77.835938 288.824219 77.136719 288.832031 76.441406 288.84375 C 75.4375 288.859375 74.433594 288.867188 73.425781 288.871094 C 72.960938 288.882812 72.960938 288.882812 72.488281 288.890625 C 70.542969 288.890625 69.402344 288.640625 67.8125 287.5 C 66.148438 285.667969 66.496094 283.394531 66.488281 281.074219 C 66.484375 280.378906 66.472656 279.679688 66.464844 278.984375 C 66.464844 278.542969 66.460938 278.097656 66.460938 277.648438 C 66.457031 277.246094 66.453125 276.84375 66.453125 276.429688 C 66.621094 274.742188 67.171875 273.816406 68.273438 272.550781 C 69.652344 271.492188 71.246094 271.679688 72.90625 271.722656 C 73.246094 271.726562 73.582031 271.726562 73.929688 271.730469 C 75.003906 271.738281 76.074219 271.757812 77.148438 271.777344 C 77.878906 271.785156 78.605469 271.792969 79.335938 271.796875 C 81.121094 271.816406 82.902344 271.847656 84.6875 271.875 C 84.6875 267.027344 84.6875 262.179688 84.6875 257.1875 C 83.625 257.203125 82.566406 257.214844 81.472656 257.230469 C 80.441406 257.242188 79.414062 257.25 78.382812 257.253906 C 77.667969 257.261719 76.953125 257.269531 76.238281 257.28125 C 75.207031 257.296875 74.179688 257.304688 73.152344 257.308594 C 72.675781 257.320312 72.675781 257.320312 72.1875 257.328125 C 70.375 257.328125 69.195312 257.238281 67.8125 255.9375 C 66.839844 254.5 66.734375 253.175781 66.738281 251.484375 C 66.738281 251.242188 66.738281 251 66.734375 250.75 C 66.730469 250.238281 66.734375 249.726562 66.734375 249.21875 C 66.738281 248.4375 66.730469 247.664062 66.71875 246.886719 C 66.71875 246.386719 66.71875 245.886719 66.71875 245.390625 C 66.71875 245.160156 66.710938 244.929688 66.707031 244.691406 C 66.730469 243.085938 67.085938 242.160156 68.125 240.9375 C 69.078125 240.339844 69.804688 240.234375 70.921875 240.242188 C 71.382812 240.242188 71.382812 240.242188 71.851562 240.242188 C 72.34375 240.246094 72.34375 240.246094 72.847656 240.253906 C 73.355469 240.253906 73.355469 240.253906 73.871094 240.253906 C 74.949219 240.257812 76.03125 240.265625 77.109375 240.273438 C 77.839844 240.277344 78.574219 240.28125 79.304688 240.28125 C 81.101562 240.289062 82.894531 240.300781 84.6875 240.3125 C 84.6875 236.1875 84.6875 232.0625 84.6875 227.8125 C 83.0625 227.832031 83.0625 227.832031 81.402344 227.855469 C 80.351562 227.867188 79.300781 227.875 78.25 227.878906 C 77.519531 227.886719 76.789062 227.894531 76.058594 227.90625 C 75.007812 227.921875 73.957031 227.929688 72.90625 227.933594 C 72.421875 227.945312 72.421875 227.945312 71.921875 227.953125 C 70.089844 227.953125 68.914062 227.863281 67.5 226.5625 C 66.628906 225.449219 66.773438 224.082031 66.769531 222.726562 C 66.769531 222.476562 66.765625 222.226562 66.765625 221.96875 C 66.761719 221.4375 66.757812 220.910156 66.757812 220.378906 C 66.757812 219.574219 66.746094 218.769531 66.734375 217.964844 C 66.734375 217.449219 66.730469 216.933594 66.730469 216.417969 C 66.726562 216.179688 66.722656 215.9375 66.71875 215.691406 C 66.730469 214.082031 67.039062 213.140625 68.125 211.875 C 69.183594 211.179688 70.078125 211.171875 71.328125 211.175781 Z M 71.328125 211.175781 "/>
<path style=" stroke:none;fill-rule:nonzero;fill:rgb(69.01961%,71.764708%,74.117649%);fill-opacity:1;" d="M 215.238281 151.199219 C 215.453125 151.199219 215.664062 151.195312 215.886719 151.195312 C 216.589844 151.191406 217.296875 151.1875 218.003906 151.1875 C 218.496094 151.183594 218.988281 151.183594 219.480469 151.183594 C 220.507812 151.179688 221.542969 151.175781 222.570312 151.175781 C 223.890625 151.171875 225.210938 151.164062 226.527344 151.15625 C 227.542969 151.152344 228.558594 151.148438 229.574219 151.148438 C 230.0625 151.148438 230.546875 151.144531 231.035156 151.140625 C 231.714844 151.136719 232.394531 151.136719 233.078125 151.140625 C 233.464844 151.136719 233.851562 151.136719 234.25 151.132812 C 235.433594 151.261719 236.179688 151.5625 237.1875 152.1875 C 237.972656 153.367188 237.929688 153.910156 237.8125 155.3125 C 237.503906 156.707031 237.113281 157.589844 236.054688 158.574219 C 234.757812 159.175781 233.605469 159.3125 232.1875 159.375 C 232.207031 159.5625 232.222656 159.753906 232.242188 159.949219 C 232.363281 162.1875 231.90625 163.777344 230.625 165.625 C 229.121094 167.296875 227.429688 168.566406 225.144531 168.847656 C 222.382812 168.972656 220.167969 168.222656 218.007812 166.503906 C 216.558594 165.125 215.722656 163.636719 215.550781 161.625 C 215.546875 160.871094 215.566406 160.128906 215.625 159.375 C 215.347656 159.363281 215.347656 159.363281 215.066406 159.351562 C 213.433594 159.234375 212.40625 159.074219 211.25 157.8125 C 210.394531 156.425781 210.367188 154.703125 210.625 153.125 C 211.964844 151.351562 213.113281 151.210938 215.238281 151.199219 Z M 215.238281 151.199219 "/>
<path style=" stroke:none;fill-rule:nonzero;fill:rgb(99.607843%,99.215686%,97.647059%);fill-opacity:1;" d="M 239.0625 95.9375 C 239.726562 96.929688 239.78125 97.273438 239.574219 98.417969 C 239.15625 99.769531 238.367188 100.945312 237.636719 102.148438 C 232.371094 111.125 229.714844 120.179688 229.554688 130.605469 C 229.542969 130.957031 229.535156 131.304688 229.523438 131.667969 C 229.519531 131.984375 229.511719 132.304688 229.503906 132.628906 C 229.375 133.4375 229.375 133.4375 228.96875 134.023438 C 228.4375 134.375 228.4375 134.375 227.304688 134.296875 C 226.25 134.0625 226.25 134.0625 225.9375 133.75 C 224.945312 121.726562 228.515625 110.195312 234.6875 100 C 234.476562 100.105469 234.265625 100.210938 234.046875 100.320312 C 233.753906 100.457031 233.464844 100.597656 233.164062 100.742188 C 232.878906 100.878906 232.597656 101.015625 232.308594 101.160156 C 229.648438 102.171875 226.984375 102.308594 224.160156 102.304688 C 223.804688 102.304688 223.445312 102.304688 223.078125 102.304688 C 219.417969 102.253906 216.464844 101.464844 213.125 100 C 213.300781 100.273438 213.472656 100.546875 213.652344 100.828125 C 219.269531 109.8125 221.925781 119.90625 221.933594 130.488281 C 221.9375 130.796875 221.941406 131.101562 221.945312 131.417969 C 221.945312 131.710938 221.945312 132.003906 221.945312 132.304688 C 221.949219 132.566406 221.949219 132.832031 221.953125 133.101562 C 221.875 133.75 221.875 133.75 221.25 134.375 C 220.15625 134.472656 220.15625 134.472656 219.0625 134.375 C 218.359375 133.324219 218.355469 132.949219 218.339844 131.71875 C 218.332031 131.199219 218.332031 131.199219 218.320312 130.671875 C 218.3125 130.300781 218.308594 129.933594 218.300781 129.550781 C 217.996094 118.855469 215.164062 108.753906 208.976562 99.921875 C 208.292969 98.835938 208.292969 98.136719 208.4375 96.875 C 209.167969 96.144531 209.328125 96.152344 210.320312 96.136719 C 212.019531 96.171875 213.34375 96.746094 214.863281 97.460938 C 219.75 99.691406 225.417969 100.449219 230.589844 98.546875 C 231.339844 98.222656 232.085938 97.890625 232.828125 97.554688 C 233.050781 97.457031 233.269531 97.355469 233.5 97.253906 C 233.925781 97.058594 234.351562 96.859375 234.773438 96.652344 C 236.269531 95.949219 237.40625 95.761719 239.0625 95.9375 Z M 239.0625 95.9375 "/>
<path style=" stroke:none;fill-rule:nonzero;fill:rgb(68.627453%,71.764708%,73.725492%);fill-opacity:1;" d="M 183.183594 117.402344 C 184.707031 118.09375 185.605469 118.949219 186.5625 120.3125 C 187.109375 121.953125 187.21875 123.789062 186.589844 125.425781 C 185.605469 127.109375 184.371094 128.125 182.5 128.75 C 180.710938 128.925781 179.351562 128.828125 177.8125 127.8125 C 176.136719 126.410156 175.429688 124.996094 175.15625 122.832031 C 175.234375 120.941406 176.335938 119.5625 177.675781 118.320312 C 179.472656 117.125 181.070312 116.738281 183.183594 117.402344 Z M 183.183594 117.402344 "/>
<path style=" stroke:none;fill-rule:nonzero;fill:rgb(68.627453%,71.372551%,73.725492%);fill-opacity:1;" d="M 171.492188 131.890625 C 172.382812 132.597656 173.125 133.273438 173.4375 134.375 C 173.582031 135.878906 173.601562 136.566406 172.890625 137.910156 C 171.742188 139.28125 170.960938 139.871094 169.113281 140.039062 C 167.5625 139.949219 166.355469 139.195312 165.3125 138.085938 C 164.835938 136.71875 164.726562 135.488281 165 134.0625 C 165.648438 132.882812 166.488281 132.121094 167.617188 131.40625 C 169 131.144531 170.273438 131.171875 171.492188 131.890625 Z M 171.492188 131.890625 "/>
</g>
</svg>
